<svg width="27" height="27" viewBox="0 0 27 27" fill="none" xmlns="http://www.w3.org/2000/svg">
<path d="M25.2728 18.4987C22.052 25.4896 17.0959 27 13.5 27C9.45061 27 5.6358 24.9071 3.29062 21.4925C0.92992 18.0456 0.366974 13.6763 1.72717 9.50119L1.97738 8.96722C3.88473 4.25804 8.5126 1 13.5 1C17.5494 1 21.3642 3.09295 23.7094 6.50747C26.0701 9.95436 26.633 14.3237 25.2728 18.4987Z" fill="#65B1FC"/>
<path d="M25.3019 18.4987C22.2099 25.4896 17.4521 27 14 27V1C17.8874 1 21.5496 3.09295 23.801 6.50747C26.0673 9.95436 26.6077 14.3237 25.3019 18.4987Z" fill="#1689FC"/>
<path d="M24.4883 5.71635C21.9548 2.1726 17.8535 0 13.499 0C8.06761 0 3.09548 3.40664 1.05279 8.42163L0.783549 8.97539C-0.670351 13.3985 -0.104256 17.5881 2.5096 21.2835C5.04311 24.8273 9.14438 27 13.499 27C18.867 27 23.7757 23.6725 25.8818 18.7681L26.1192 18.2935C27.702 13.7943 27.1476 9.47204 24.4883 5.71635ZM3.80805 20.366C1.55956 17.2019 1.03696 13.1994 2.33541 9.35508L2.54127 8.92788C3.82388 5.85874 6.37329 3.48047 9.41352 2.34135C7.49756 4.84102 6.34157 9.70307 6.48413 11.2851C6.4683 11.3326 6.45241 11.38 6.45241 11.4434C6.04071 16.7431 7.24415 21.8584 9.50853 24.7219C7.2442 23.8992 5.23324 22.3752 3.80805 20.366ZM12.7072 25.2755C12.153 25.0857 11.5988 24.6691 11.0762 24.1154C8.85935 21.7266 7.64007 16.6799 8.03594 11.5699V11.4275C8.03594 11.38 8.05178 11.3168 8.05178 11.2693C8.51094 6.34917 10.4428 2.46797 12.7072 1.72436V25.2755ZM14.2907 25.2597V1.72436C16.7292 2.5312 18.772 7.01362 19.0094 12.3609C19.2311 17.2968 17.996 21.9322 15.8583 24.1787C15.3516 24.7007 14.8291 25.0857 14.2907 25.2597ZM24.6625 17.6449C22.889 21.3785 20.3871 23.6777 17.4894 24.7061C19.6112 22.0324 20.8146 17.2652 20.5929 12.2977C20.4029 8.0894 19.2153 4.46138 17.4893 2.27813C19.7537 3.10073 21.7647 4.6248 23.1898 6.63393C25.4383 9.79799 25.9609 13.8006 24.6625 17.6449Z" fill="#96EBE6"/>
<path d="M24.5815 5.71635C22.142 2.1726 18.193 0 14 0V27C19.1688 27 23.8954 23.6725 25.9233 18.7681L26.1519 18.2935C27.6759 13.7943 27.1421 9.47204 24.5815 5.71635ZM14.7624 25.2597V1.72436C17.1104 2.5312 19.0774 7.01362 19.306 12.3609C19.5194 17.2968 18.3302 21.9322 16.2718 24.1787C15.7839 24.7007 15.2808 25.0857 14.7624 25.2597ZM24.7492 17.6449C23.0416 21.3785 20.6325 23.6777 17.8423 24.7061C19.8854 22.0324 21.0442 17.2652 20.8307 12.2977C20.6477 8.0894 19.5042 4.46138 17.8423 2.27813C20.0226 3.10073 21.959 4.6248 23.3312 6.63393C25.4963 9.79799 25.9995 13.8006 24.7492 17.6449Z" fill="#00C8C8"/>
<path d="M24.5742 8H2.42578C1.11264 8 0 9.14851 0 10.5714V17.4286C0 18.8514 1.11264 20 2.42578 20H24.5742C25.8874 20 27 18.8514 27 17.4286V10.5714C27 9.14851 25.8874 8 24.5742 8Z" fill="#0053BF"/>
<path d="M27 10.5714V17.4286C27 18.8514 25.9286 20 24.6641 20H14V8H24.6641C25.9286 8 27 9.14851 27 10.5714Z" fill="#05377F"/>
<path d="M16.9292 12.2007L15.5295 15.5334C15.4035 15.8167 15.1656 16 14.8997 16C14.6337 16 14.3958 15.8167 14.2698 15.5334L13.5 13.7005L12.7302 15.5334C12.4923 16.1 11.7084 16.1 11.4705 15.5334L10.0708 12.2007C9.90287 11.8008 10.0429 11.301 10.3928 11.0843C10.7287 10.8844 11.1486 11.051 11.3305 11.4675L12.1004 13.3006L12.8702 11.4675C12.9962 11.1843 13.2481 11.0343 13.5 11.0343C13.7519 11.0343 14.0039 11.1843 14.1299 11.4675L14.8997 13.3006L15.6695 11.4675C15.8514 11.051 16.2713 10.8844 16.6072 11.0843C16.9571 11.301 17.0971 11.8008 16.9292 12.2007Z" fill="#E1F1FA"/>
<path d="M23.308 16C22.968 16 22.6579 15.8218 22.5054 15.5393L21.5135 13.6967L20.5217 15.5393C20.2167 16.1042 19.2214 16.1042 18.9165 15.5393L17.1974 12.3448C17.0861 12.2178 17.0142 12.0607 17.002 11.8882C16.9705 11.4291 17.3183 11.0344 17.8124 11.0043C18.1875 10.9962 18.566 11.1606 18.7272 11.4601L19.7191 13.3027L20.7109 11.4601C21.0159 10.8952 22.0112 10.8952 22.3161 11.4601L23.308 13.3027L24.2998 11.4601C24.5224 11.0474 25.0612 10.8838 25.5037 11.0873C25.9471 11.2932 26.1267 11.7938 25.905 12.2056L24.1106 15.5393C23.9581 15.8218 23.648 16 23.308 16Z" fill="#BFE1FF"/>
<path d="M9.13343 11.001C8.78034 10.9977 8.43424 11.1605 8.27297 11.4601L7.28109 13.3027L6.28921 11.4601C5.96602 10.8617 5.00363 10.8662 4.68397 11.4601L3.69209 13.3027L2.70021 11.4601C2.47763 11.0474 1.9379 10.8838 1.49628 11.0873C1.05292 11.2932 0.873287 11.7938 1.09497 12.2056L2.88947 15.5393C3.04194 15.8218 3.35209 16 3.69209 16C4.03209 16 4.34224 15.8218 4.49471 15.5393L5.48659 13.6967L6.47847 15.5393C6.63094 15.8218 6.94109 16 7.28109 16C7.62109 16 7.93124 15.8218 8.08371 15.5393L9.77395 12.3993C9.9019 12.2642 9.98427 12.0859 9.99827 11.8882C10.0298 11.4291 9.62764 11.0311 9.13343 11.001Z" fill="#E1F1FA"/>
<path d="M16.9393 12.2007L15.7396 15.5334C15.6316 15.8167 15.4277 16 15.1997 16C14.9718 16 14.7678 15.8167 14.6598 15.5334L14 13.7005V11.0343C14.2159 11.0343 14.4319 11.1843 14.5399 11.4675L15.1997 13.3006L15.8595 11.4675C16.0155 11.051 16.3754 10.8844 16.6633 11.0843C16.9632 11.301 17.0833 11.8008 16.9393 12.2007Z" fill="#BFE1FF"/>
</svg>
