<?xml version="1.0" encoding="UTF-8"?><svg xmlns="http://www.w3.org/2000/svg" xmlns:xlink="http://www.w3.org/1999/xlink" contentScriptType="text/ecmascript" width="30pt" zoomAndPan="magnify" contentStyleType="text/css" viewBox="0 0 30 31.5" height="31.5pt" preserveAspectRatio="xMidYMid meet" version="1.2"><defs><clipPath xml:id="clip1" id="clip1"><path d="M 19 19 L 28.4375 19 L 28.4375 28.867188 L 19 28.867188 Z M 19 19 "/></clipPath><clipPath xml:id="clip2" id="clip2"><path d="M 1.859375 2.289062 L 17 2.289062 L 17 18 L 1.859375 18 Z M 1.859375 2.289062 "/></clipPath><clipPath xml:id="clip3" id="clip3"><path d="M 10 2.289062 L 24 2.289062 L 24 18 L 10 18 Z M 10 2.289062 "/></clipPath><clipPath xml:id="clip4" id="clip4"><path d="M 10 2.289062 L 24 2.289062 L 24 12 L 10 12 Z M 10 2.289062 "/></clipPath><clipPath xml:id="clip5" id="clip5"><path d="M 1.859375 2.289062 L 23 2.289062 L 23 10 L 1.859375 10 Z M 1.859375 2.289062 "/></clipPath></defs><g xml:id="surface1" id="surface1"><g clip-rule="nonzero" clip-path="url(#clip1)"><path style=" stroke:none;fill-rule:nonzero;fill:rgb(18.429565%,25.099182%,32.939148%);fill-opacity:1;" d="M 19.371094 19.800781 L 28.585938 19.800781 L 28.585938 29.019531 L 19.371094 29.019531 L 19.371094 19.800781 "/></g><path style=" stroke:none;fill-rule:nonzero;fill:rgb(78.819275%,85.099792%,89.7995%);fill-opacity:1;" d="M 23.519531 26.253906 L 20.753906 26.253906 C 17.953125 26.253906 15.683594 23.984375 15.683594 21.183594 L 15.683594 16.574219 L 19.371094 16.574219 L 19.371094 20.722656 C 19.371094 21.742188 20.195312 22.566406 21.214844 22.566406 L 23.519531 22.566406 C 24.535156 22.566406 25.363281 23.390625 25.363281 24.410156 C 25.363281 25.425781 24.535156 26.253906 23.519531 26.253906 "/><path style=" stroke:none;fill-rule:nonzero;fill:rgb(67.059326%,71.759033%,75.689697%);fill-opacity:1;" d="M 17.527344 18.878906 C 16.253906 18.878906 15.222656 17.847656 15.222656 16.574219 L 15.222656 11.964844 L 19.832031 11.964844 L 19.832031 16.574219 C 19.832031 17.847656 18.800781 18.878906 17.527344 18.878906 "/><path style=" stroke:none;fill-rule:nonzero;fill:rgb(18.429565%,25.099182%,32.939148%);fill-opacity:1;" d="M 18.449219 16.574219 C 18.449219 16.066406 18.035156 15.652344 17.527344 15.652344 C 17.019531 15.652344 16.605469 16.066406 16.605469 16.574219 C 16.605469 17.082031 17.019531 17.496094 17.527344 17.496094 C 18.035156 17.496094 18.449219 17.082031 18.449219 16.574219 "/><g clip-rule="nonzero" clip-path="url(#clip2)"><path style=" stroke:none;fill-rule:nonzero;fill:rgb(50.19989%,53.329468%,59.609985%);fill-opacity:1;" d="M 3.703125 17.035156 L 16.144531 9.664062 L 16.144531 4.132812 L 14.300781 2.289062 L 1.859375 9.664062 L 3.703125 11.503906 L 3.703125 17.035156 "/></g><path style=" stroke:none;fill-rule:nonzero;fill:rgb(14.898682%,17.649841%,26.269531%);fill-opacity:1;" d="M 11.996094 17.035156 L 3.703125 17.035156 L 3.703125 9.664062 L 11.996094 9.664062 L 11.996094 17.035156 "/><path style=" stroke:none;fill-rule:nonzero;fill:rgb(21.569824%,63.919067%,78.42865%);fill-opacity:1;" d="M 10.613281 13.347656 C 10.613281 15.386719 8.964844 17.035156 6.929688 17.035156 C 4.890625 17.035156 3.242188 15.386719 3.242188 13.347656 C 3.242188 11.3125 4.890625 9.664062 6.929688 9.664062 C 8.964844 9.664062 10.613281 11.3125 10.613281 13.347656 "/><path style=" stroke:none;fill-rule:nonzero;fill:rgb(17.649841%,50.19989%,72.158813%);fill-opacity:1;" d="M 10.613281 13.347656 C 10.613281 14.621094 9.582031 15.652344 8.308594 15.652344 C 7.039062 15.652344 6.007812 14.621094 6.007812 13.347656 C 6.007812 12.078125 7.039062 11.042969 8.308594 11.042969 C 9.582031 11.042969 10.613281 12.078125 10.613281 13.347656 "/><path style=" stroke:none;fill-rule:nonzero;fill:rgb(56.079102%,81.959534%,92.549133%);fill-opacity:1;" d="M 10.613281 13.347656 C 10.613281 14.113281 9.996094 14.730469 9.230469 14.730469 C 8.46875 14.730469 7.847656 14.113281 7.847656 13.347656 C 7.847656 12.585938 8.46875 11.964844 9.230469 11.964844 C 9.996094 11.964844 10.613281 12.585938 10.613281 13.347656 "/><path style=" stroke:none;fill-rule:nonzero;fill:rgb(18.429565%,25.099182%,32.939148%);fill-opacity:1;" d="M 6.929688 10.121094 C 5.148438 10.121094 3.703125 11.570312 3.703125 13.347656 C 3.703125 15.128906 5.148438 16.574219 6.929688 16.574219 C 8.707031 16.574219 10.152344 15.128906 10.152344 13.347656 C 10.152344 11.570312 8.707031 10.121094 6.929688 10.121094 Z M 6.929688 17.496094 C 4.640625 17.496094 2.78125 15.636719 2.78125 13.347656 C 2.78125 11.0625 4.640625 9.203125 6.929688 9.203125 C 9.214844 9.203125 11.074219 11.0625 11.074219 13.347656 C 11.074219 15.636719 9.214844 17.496094 6.929688 17.496094 "/><g clip-rule="nonzero" clip-path="url(#clip3)"><path style=" stroke:none;fill-rule:nonzero;fill:rgb(50.19989%,53.329468%,59.609985%);fill-opacity:1;" d="M 11.996094 17.035156 L 23.980469 9.664062 L 23.980469 4.132812 L 22.136719 2.289062 L 10.152344 9.664062 L 11.996094 11.503906 L 11.996094 17.035156 "/></g><g clip-rule="nonzero" clip-path="url(#clip4)"><path style=" stroke:none;fill-rule:nonzero;fill:rgb(67.059326%,71.759033%,75.689697%);fill-opacity:1;" d="M 11.996094 11.503906 L 23.980469 4.132812 L 22.136719 2.289062 L 10.152344 9.664062 L 11.996094 11.503906 "/></g><g clip-rule="nonzero" clip-path="url(#clip5)"><path style=" stroke:none;fill-rule:nonzero;fill:rgb(84.709167%,90.19928%,93.328857%);fill-opacity:1;" d="M 1.859375 9.664062 L 10.152344 9.664062 L 22.136719 2.289062 L 14.300781 2.289062 L 1.859375 9.664062 "/></g></g></svg>