<?xml version="1.0" encoding="UTF-8"?><svg xmlns="http://www.w3.org/2000/svg" xmlns:xlink="http://www.w3.org/1999/xlink" contentScriptType="text/ecmascript" width="296.25pt" zoomAndPan="magnify" contentStyleType="text/css" viewBox="0 0 296.25 262.500001" height="262.500001pt" preserveAspectRatio="xMidYMid meet" version="1.2"><defs><clipPath xml:id="clip1" id="clip1"><path d="M 0 0.0820312 L 295.5 0.0820312 L 295.5 261.917969 L 0 261.917969 Z M 0 0.0820312 "/></clipPath><clipPath xml:id="clip2" id="clip2"><path d="M 211.886719 14.054688 L 261 14.054688 L 261 63 L 211.886719 63 Z M 211.886719 14.054688 "/></clipPath><clipPath xml:id="clip3" id="clip3"><path d="M 251 51 L 283.703125 51 L 283.703125 83.628906 L 251 83.628906 Z M 251 51 "/></clipPath><clipPath xml:id="clip4" id="clip4"><path d="M 37.285156 84 L 230 84 L 230 246 L 37.285156 246 Z M 37.285156 84 "/></clipPath></defs><g xml:id="surface1" id="surface1"><g clip-rule="nonzero" clip-path="url(#clip1)"><path style=" stroke:none;fill-rule:nonzero;fill:rgb(100%,100%,100%);fill-opacity:1;" d="M 0 0.0820312 L 296.25 0.0820312 L 296.25 270.148438 L 0 270.148438 Z M 0 0.0820312 "/><path style=" stroke:none;fill-rule:nonzero;fill:rgb(100%,100%,100%);fill-opacity:1;" d="M 0 0.0820312 L 295.5 0.0820312 L 295.5 261.917969 L 0 261.917969 Z M 0 0.0820312 "/><path style=" stroke:none;fill-rule:nonzero;fill:rgb(0%,0%,0%);fill-opacity:1;" d="M 0 0.0820312 L 295.5 0.0820312 L 295.5 261.917969 L 0 261.917969 Z M 0 0.0820312 "/></g><path style=" stroke:none;fill-rule:nonzero;fill:rgb(100%,8.628845%,8.628845%);fill-opacity:1;" d="M 241.574219 32.835938 C 241.566406 32.835938 241.566406 32.835938 241.5625 32.835938 C 241.105469 32.835938 240.675781 33.011719 240.34375 33.335938 L 234.058594 39.5 L 232.160156 37.597656 C 231.492188 36.9375 230.402344 36.933594 229.726562 37.59375 L 229.714844 37.601562 C 229.394531 37.925781 229.210938 38.355469 229.210938 38.816406 C 229.210938 39.273438 229.386719 39.703125 229.714844 40.03125 L 231.199219 41.546875 L 232.859375 43.121094 C 233.539062 43.796875 234.625 43.800781 235.300781 43.140625 L 235.304688 43.136719 L 236.902344 41.546875 L 242.785156 35.769531 C 243.117188 35.449219 243.292969 35.019531 243.292969 34.558594 C 243.292969 34.097656 243.117188 33.667969 242.796875 33.34375 C 242.464844 33.015625 242.03125 32.835938 241.574219 32.835938 "/><g clip-rule="nonzero" clip-path="url(#clip2)"><path style=" stroke:none;fill-rule:nonzero;fill:rgb(100%,8.628845%,8.628845%);fill-opacity:1;" d="M 248.320312 40.476562 C 248.191406 41.136719 248.019531 41.777344 247.796875 42.390625 C 247.132812 44.210938 246.0625 45.800781 244.707031 47.074219 C 243.742188 47.988281 242.636719 48.738281 241.429688 49.292969 C 239.75 50.070312 237.878906 50.480469 235.945312 50.429688 C 235.300781 50.414062 234.648438 50.34375 233.996094 50.222656 C 233.339844 50.101562 232.707031 49.929688 232.105469 49.714844 C 230.28125 49.066406 228.6875 48.015625 227.402344 46.683594 C 226.480469 45.734375 225.722656 44.636719 225.152344 43.441406 C 224.351562 41.765625 223.933594 39.898438 223.976562 37.964844 C 223.992188 37.3125 224.0625 36.652344 224.183594 35.988281 C 224.3125 35.324219 224.488281 34.679688 224.714844 34.0625 C 225.371094 32.257812 226.433594 30.679688 227.773438 29.410156 C 228.742188 28.492188 229.859375 27.734375 231.078125 27.167969 C 232.757812 26.394531 234.625 25.988281 236.554688 26.035156 C 237.199219 26.050781 237.855469 26.121094 238.511719 26.242188 C 239.164062 26.363281 239.796875 26.535156 240.40625 26.753906 C 242.226562 27.402344 243.816406 28.449219 245.101562 29.777344 C 246.03125 30.738281 246.796875 31.847656 247.367188 33.054688 C 248.15625 34.71875 248.570312 36.574219 248.527344 38.488281 C 248.511719 39.144531 248.445312 39.808594 248.320312 40.476562 Z M 252.78125 55.429688 C 252.09375 54.433594 251.421875 53.429688 250.714844 52.449219 C 250.65625 52.367188 250.609375 52.289062 250.574219 52.214844 C 252.402344 50.371094 253.878906 48.167969 254.878906 45.6875 C 254.921875 45.691406 254.964844 45.699219 255.011719 45.707031 C 256.324219 45.960938 257.636719 46.1875 258.949219 46.445312 C 259.003906 46.457031 259.054688 46.464844 259.109375 46.46875 C 259.546875 45.25 259.898438 43.984375 260.148438 42.671875 C 260.394531 41.351562 260.527344 40.039062 260.558594 38.742188 C 260.53125 38.738281 260.507812 38.730469 260.480469 38.726562 C 259.226562 38.492188 257.980469 38.234375 256.722656 38.046875 C 256.566406 38.019531 256.4375 37.988281 256.332031 37.933594 C 256.292969 35.304688 255.730469 32.761719 254.730469 30.421875 C 254.832031 30.308594 254.996094 30.191406 255.238281 30.027344 C 256.242188 29.339844 257.246094 28.648438 258.261719 27.976562 C 257.132812 25.585938 255.613281 23.394531 253.777344 21.488281 C 252.714844 22.226562 251.632812 22.933594 250.582031 23.679688 C 250.441406 23.777344 250.316406 23.847656 250.191406 23.875 C 248.351562 22.105469 246.160156 20.675781 243.695312 19.703125 C 243.691406 19.617188 243.699219 19.527344 243.722656 19.421875 C 243.871094 18.757812 243.980469 18.082031 244.105469 17.410156 L 244.117188 17.410156 C 244.234375 16.777344 244.332031 16.144531 244.476562 15.519531 L 244.480469 15.5 C 243.277344 15.070312 242.019531 14.730469 240.722656 14.488281 C 239.421875 14.246094 238.128906 14.117188 236.847656 14.082031 L 236.847656 14.101562 C 236.75 14.734375 236.613281 15.363281 236.496094 15.996094 L 236.503906 15.996094 C 236.375 16.667969 236.230469 17.339844 236.128906 18.011719 C 236.113281 18.117188 236.089844 18.207031 236.054688 18.28125 C 233.402344 18.304688 230.835938 18.851562 228.476562 19.839844 C 228.371094 19.769531 228.28125 19.660156 228.1875 19.515625 C 227.476562 18.441406 226.722656 17.394531 226.003906 16.324219 C 223.597656 17.445312 221.382812 18.941406 219.460938 20.765625 C 220.164062 21.753906 220.847656 22.761719 221.535156 23.761719 C 221.699219 24.003906 221.808594 24.175781 221.867188 24.3125 C 220.078125 26.132812 218.628906 28.304688 217.640625 30.746094 C 217.523438 30.753906 217.386719 30.738281 217.234375 30.707031 C 215.992188 30.429688 214.734375 30.222656 213.484375 29.992188 C 213.457031 29.988281 213.429688 29.980469 213.402344 29.976562 C 212.957031 31.199219 212.605469 32.472656 212.359375 33.789062 C 212.113281 35.101562 211.976562 36.410156 211.945312 37.703125 C 211.996094 37.71875 212.046875 37.730469 212.105469 37.738281 C 213.417969 37.964844 214.726562 38.230469 216.042969 38.460938 C 216.085938 38.472656 216.132812 38.480469 216.175781 38.492188 C 216.207031 41.167969 216.78125 43.753906 217.8125 46.121094 C 217.753906 46.179688 217.679688 46.238281 217.59375 46.296875 C 216.582031 46.953125 215.585938 47.652344 214.585938 48.332031 C 214.460938 48.410156 214.359375 48.484375 214.273438 48.546875 C 215.398438 50.914062 216.902344 53.082031 218.726562 54.972656 C 218.753906 54.957031 218.777344 54.9375 218.804688 54.917969 C 219.875 54.160156 220.976562 53.445312 222.050781 52.6875 C 222.128906 52.632812 222.203125 52.589844 222.28125 52.554688 C 224.125 54.34375 226.335938 55.785156 228.816406 56.765625 C 228.824219 56.867188 228.8125 56.976562 228.785156 57.101562 C 228.511719 58.359375 228.304688 59.628906 228.046875 60.890625 C 228.042969 60.914062 228.039062 60.941406 228.035156 60.96875 C 229.234375 61.394531 230.488281 61.734375 231.78125 61.976562 C 233.078125 62.214844 234.367188 62.351562 235.644531 62.382812 C 235.648438 62.359375 235.65625 62.328125 235.660156 62.304688 C 235.878906 61.039062 236.152344 59.777344 236.351562 58.507812 C 236.371094 58.382812 236.398438 58.273438 236.441406 58.183594 C 239.113281 58.164062 241.699219 57.609375 244.070312 56.609375 C 244.128906 56.664062 244.183594 56.734375 244.238281 56.8125 C 244.960938 57.902344 245.730469 58.964844 246.449219 60.054688 C 246.46875 60.082031 246.484375 60.109375 246.503906 60.136719 C 248.890625 59.03125 251.082031 57.546875 252.996094 55.746094 C 252.9375 55.65625 252.867188 55.550781 252.78125 55.429688 "/></g><g clip-rule="nonzero" clip-path="url(#clip3)"><path style=" stroke:none;fill-rule:nonzero;fill:rgb(100%,8.628845%,8.628845%);fill-opacity:1;" d="M 275.488281 69.0625 C 275.40625 69.503906 275.289062 69.929688 275.140625 70.339844 C 274.699219 71.550781 273.988281 72.609375 273.082031 73.460938 C 272.441406 74.066406 271.703125 74.566406 270.902344 74.9375 C 269.78125 75.457031 268.535156 75.726562 267.246094 75.695312 C 266.820312 75.683594 266.382812 75.636719 265.949219 75.558594 C 265.511719 75.476562 265.089844 75.363281 264.6875 75.21875 C 263.472656 74.785156 262.414062 74.085938 261.558594 73.199219 C 260.941406 72.566406 260.4375 71.835938 260.058594 71.039062 C 259.527344 69.921875 259.246094 68.679688 259.273438 67.390625 C 259.285156 66.957031 259.332031 66.515625 259.414062 66.074219 C 259.5 65.632812 259.617188 65.203125 259.765625 64.792969 C 260.203125 63.589844 260.910156 62.539062 261.804688 61.691406 C 262.449219 61.078125 263.195312 60.574219 264.003906 60.199219 C 265.121094 59.683594 266.367188 59.414062 267.652344 59.445312 C 268.082031 59.457031 268.519531 59.503906 268.953125 59.582031 C 269.394531 59.664062 269.816406 59.777344 270.21875 59.921875 C 271.433594 60.351562 272.492188 61.054688 273.347656 61.9375 C 273.964844 62.578125 274.476562 63.316406 274.855469 64.117188 C 275.382812 65.230469 275.65625 66.464844 275.628906 67.742188 C 275.621094 68.179688 275.574219 68.621094 275.488281 69.0625 Z M 283.59375 67.898438 C 282.757812 67.742188 281.925781 67.574219 281.085938 67.445312 C 280.984375 67.429688 280.898438 67.40625 280.828125 67.371094 C 280.804688 65.621094 280.429688 63.921875 279.757812 62.367188 C 279.828125 62.292969 279.9375 62.214844 280.101562 62.101562 C 280.769531 61.644531 281.4375 61.183594 282.113281 60.738281 C 281.359375 59.144531 280.351562 57.6875 279.125 56.417969 C 278.417969 56.90625 277.699219 57.375 276.996094 57.875 C 276.90625 57.941406 276.820312 57.984375 276.738281 58.003906 C 275.511719 56.828125 274.050781 55.875 272.410156 55.226562 C 272.40625 55.171875 272.414062 55.109375 272.429688 55.039062 C 272.527344 54.597656 272.601562 54.148438 272.6875 53.699219 L 272.691406 53.699219 C 272.769531 53.277344 272.835938 52.855469 272.933594 52.441406 L 272.933594 52.425781 C 272.128906 52.140625 271.292969 51.914062 270.429688 51.753906 C 269.566406 51.59375 268.703125 51.503906 267.851562 51.480469 L 267.847656 51.492188 C 267.785156 51.917969 267.691406 52.335938 267.613281 52.757812 L 267.617188 52.757812 C 267.535156 53.203125 267.4375 53.648438 267.371094 54.101562 C 267.359375 54.167969 267.34375 54.230469 267.320312 54.277344 C 265.554688 54.292969 263.84375 54.660156 262.273438 55.316406 C 262.203125 55.269531 262.140625 55.199219 262.082031 55.101562 C 261.609375 54.386719 261.105469 53.691406 260.625 52.976562 C 259.019531 53.722656 257.546875 54.71875 256.265625 55.933594 C 256.738281 56.59375 257.191406 57.265625 257.648438 57.929688 C 257.757812 58.09375 257.832031 58.203125 257.871094 58.296875 C 256.679688 59.507812 255.714844 60.957031 255.054688 62.582031 C 254.976562 62.589844 254.886719 62.578125 254.785156 62.554688 C 253.957031 62.375 253.117188 62.234375 252.285156 62.078125 C 252.265625 62.078125 252.25 62.070312 252.234375 62.070312 C 251.933594 62.882812 251.703125 63.734375 251.535156 64.609375 C 251.371094 65.484375 251.28125 66.355469 251.261719 67.21875 C 251.292969 67.226562 251.328125 67.234375 251.367188 67.238281 C 252.242188 67.394531 253.113281 67.566406 253.992188 67.722656 C 254.019531 67.730469 254.050781 67.734375 254.078125 67.742188 C 254.097656 69.523438 254.480469 71.246094 255.167969 72.824219 C 255.128906 72.863281 255.082031 72.902344 255.023438 72.9375 C 254.347656 73.378906 253.6875 73.84375 253.019531 74.296875 C 252.9375 74.351562 252.867188 74.398438 252.8125 74.441406 C 253.5625 76.015625 254.5625 77.460938 255.777344 78.722656 C 255.792969 78.710938 255.8125 78.695312 255.832031 78.683594 C 256.542969 78.179688 257.277344 77.703125 257.988281 77.199219 C 258.042969 77.160156 258.09375 77.132812 258.144531 77.113281 C 259.375 78.300781 260.847656 79.261719 262.5 79.914062 C 262.503906 79.984375 262.496094 80.058594 262.476562 80.140625 C 262.292969 80.976562 262.160156 81.820312 261.988281 82.660156 C 261.984375 82.679688 261.980469 82.699219 261.980469 82.714844 C 262.777344 83 263.613281 83.222656 264.472656 83.386719 L 264.476562 83.386719 C 265.339844 83.542969 266.199219 83.636719 267.046875 83.65625 C 267.050781 83.640625 267.054688 83.621094 267.058594 83.605469 C 267.203125 82.757812 267.386719 81.921875 267.519531 81.074219 C 267.53125 80.992188 267.550781 80.921875 267.578125 80.859375 C 269.355469 80.84375 271.082031 80.476562 272.660156 79.808594 C 272.699219 79.847656 272.734375 79.894531 272.773438 79.945312 C 273.253906 80.675781 273.765625 81.378906 274.246094 82.109375 C 274.257812 82.125 274.269531 82.144531 274.28125 82.160156 C 275.871094 81.421875 277.332031 80.433594 278.601562 79.234375 C 278.566406 79.175781 278.519531 79.105469 278.464844 79.023438 C 278.003906 78.363281 277.558594 77.695312 277.085938 77.039062 C 277.046875 76.984375 277.015625 76.933594 276.992188 76.882812 C 278.207031 75.65625 279.191406 74.1875 279.859375 72.535156 C 279.886719 72.535156 279.917969 72.542969 279.949219 72.546875 C 280.820312 72.71875 281.695312 72.867188 282.570312 73.039062 C 282.605469 73.046875 282.640625 73.050781 282.675781 73.054688 C 282.972656 72.246094 283.203125 71.402344 283.367188 70.527344 C 283.535156 69.648438 283.625 68.773438 283.644531 67.910156 C 283.625 67.90625 283.609375 67.902344 283.59375 67.898438 "/></g><path style=" stroke:none;fill-rule:nonzero;fill:rgb(100%,8.628845%,8.628845%);fill-opacity:1;" d="M 270.160156 64.984375 C 269.769531 64.578125 269.277344 64.253906 268.722656 64.058594 C 268.539062 63.992188 268.34375 63.9375 268.140625 63.902344 C 267.941406 63.863281 267.742188 63.84375 267.542969 63.839844 C 266.953125 63.824219 266.382812 63.949219 265.871094 64.1875 C 265.496094 64.359375 265.15625 64.589844 264.859375 64.871094 C 264.449219 65.257812 264.125 65.742188 263.921875 66.296875 C 263.851562 66.480469 263.800781 66.679688 263.761719 66.882812 C 263.722656 67.085938 263.703125 67.289062 263.699219 67.488281 C 263.683594 68.078125 263.8125 68.648438 264.054688 69.164062 C 264.230469 69.527344 264.460938 69.863281 264.746094 70.15625 C 265.136719 70.5625 265.625 70.882812 266.183594 71.078125 C 266.367188 71.148438 266.5625 71.199219 266.761719 71.238281 C 266.960938 71.273438 267.160156 71.292969 267.359375 71.300781 C 267.949219 71.316406 268.519531 71.191406 269.035156 70.953125 C 269.40625 70.78125 269.742188 70.550781 270.039062 70.273438 C 270.453125 69.882812 270.78125 69.398438 270.984375 68.84375 C 271.050781 68.652344 271.105469 68.457031 271.144531 68.253906 C 271.183594 68.050781 271.203125 67.847656 271.207031 67.648438 C 271.21875 67.0625 271.09375 66.496094 270.851562 65.984375 C 270.679688 65.617188 270.441406 65.277344 270.160156 64.984375 "/><g clip-rule="nonzero" clip-path="url(#clip4)"><path style=" stroke:none;fill-rule:nonzero;fill:rgb(100%,8.628845%,8.628845%);fill-opacity:1;" d="M 69.402344 84.347656 C 58.777344 84.347656 50.132812 93.019531 50.132812 103.679688 L 50.132812 187.453125 C 50.132812 192.421875 52.0625 196.914062 55.136719 200.339844 L 37.285156 200.339844 C 37.285156 211.019531 45.914062 219.675781 56.554688 219.675781 L 129.378906 219.675781 C 130.730469 216.402344 132.714844 213.316406 135.359375 210.664062 L 152.070312 193.898438 L 69.402344 193.898438 C 65.855469 193.898438 62.976562 191.003906 62.976562 187.453125 L 62.976562 103.679688 C 62.976562 100.128906 65.855469 97.234375 69.402344 97.234375 L 197.859375 97.234375 C 201.402344 97.234375 204.28125 100.128906 204.28125 103.679688 L 204.28125 143.074219 C 207.253906 143.582031 210.179688 144.371094 213.023438 145.464844 C 214.59375 146.066406 215.9375 147.019531 217.128906 148.132812 L 217.128906 103.679688 C 217.128906 93.019531 208.480469 84.347656 197.859375 84.347656 Z M 194.457031 155.332031 C 186.582031 155.792969 178.839844 159.035156 172.820312 165.074219 C 163.558594 174.359375 164.246094 184.363281 170.058594 194.074219 L 144.441406 219.773438 C 138.59375 225.644531 138.59375 235.175781 144.441406 241.046875 C 150.292969 246.917969 159.792969 246.917969 165.644531 241.046875 L 191.261719 215.34375 C 200.933594 221.175781 210.902344 221.867188 220.164062 212.574219 C 229.796875 202.910156 232.28125 188.824219 227.714844 176.832031 L 207.492188 197.121094 L 191.4375 193.898438 L 188.222656 177.785156 L 208.445312 157.496094 C 203.960938 155.78125 199.1875 155.058594 194.457031 155.332031 Z M 194.457031 155.332031 "/></g></g></svg>