<svg width="250" height="137" viewBox="0 0 250 137" fill="none" xmlns="http://www.w3.org/2000/svg">
<path d="M38.1365 117.061C32.585 121.186 31.0117 128.445 31.0117 128.445C31.0117 128.445 38.4391 129.015 43.9905 124.889C49.542 120.764 51.1154 113.505 51.1154 113.505C51.1154 113.505 43.688 112.935 38.1365 117.061Z" fill="#319820"/>
<path d="M40.449 118.998C37.7809 125.367 31.0987 128.65 31.0987 128.65C31.0987 128.65 28.7424 121.605 31.4105 115.235C34.0786 108.866 40.7608 105.583 40.7608 105.583C40.7608 105.583 43.1171 112.628 40.449 118.998Z" fill="#46ED89"/>
<path d="M200.17 100.584C199.58 96.6232 199.425 92.6101 199.705 88.6156L200.17 82.0047C197.609 87.0843 198.188 93.7699 200.17 100.584V100.584Z" fill="#CACACA"/>
<path d="M202.167 101.69C201.883 99.3265 201.808 96.9426 201.944 94.5659L202.167 90.6309C200.935 93.6544 201.213 97.634 202.167 101.69Z" fill="#CACACA"/>
<path d="M211.043 106.557V108.768C211.042 108.944 210.972 109.112 210.847 109.237C210.723 109.361 210.554 109.431 210.378 109.432H209.268C209.239 109.432 209.21 109.437 209.183 109.449C209.156 109.46 209.132 109.476 209.111 109.497C209.09 109.517 209.074 109.541 209.063 109.568C209.052 109.595 209.046 109.624 209.046 109.653V127.79C209.045 127.966 208.975 128.134 208.85 128.258C208.726 128.383 208.557 128.453 208.381 128.454H194.846C194.67 128.454 194.5 128.384 194.376 128.259C194.251 128.135 194.181 127.966 194.181 127.79V109.653C194.18 109.595 194.157 109.538 194.115 109.497C194.074 109.455 194.017 109.432 193.959 109.432H192.627C192.451 109.432 192.282 109.362 192.157 109.237C192.032 109.113 191.962 108.944 191.962 108.768V106.557C191.962 106.469 191.979 106.383 192.012 106.303C192.046 106.222 192.095 106.149 192.156 106.087C192.218 106.025 192.292 105.977 192.373 105.943C192.453 105.91 192.54 105.893 192.627 105.893H210.378C210.554 105.894 210.723 105.964 210.848 106.088C210.972 106.212 211.043 106.381 211.043 106.557Z" fill="#F2F2F2"/>
<path d="M209.066 109.896H194.2V110.56H209.066V109.896Z" fill="#E6E6E6"/>
<path d="M209.046 119.661C204.072 121.713 199.043 121.735 193.959 119.661V114.986C198.854 113.347 204.151 113.347 209.046 114.986V119.661Z" fill="#714C4C"/>
<path d="M125.722 48.1845C136.827 48.1845 145.829 39.2105 145.829 28.1405C145.829 17.0705 136.827 8.09655 125.722 8.09655C114.617 8.09655 105.615 17.0705 105.615 28.1405C105.615 39.2105 114.617 48.1845 125.722 48.1845Z" fill="#FFCCCC"/>
<path d="M144.502 10.8482C141.496 5.98201 136.79 2.39626 131.291 0.78125L128.823 2.57694V0.245289C127.502 0.0437851 126.165 -0.03384 124.83 0.0134347L122.7 1.93433V0.173023C119.547 0.563626 116.509 1.60127 113.779 3.22052C111.048 4.83978 108.683 7.00552 106.834 9.58117C102.209 16.2276 101.428 25.4742 105.977 32.174C107.226 28.3484 108.741 24.759 109.99 20.9338C110.972 21.0671 111.966 21.072 112.949 20.9481L114.468 17.4143L114.893 20.7985C119.602 20.3897 126.586 19.4917 131.05 18.669L130.616 16.0726L133.213 18.23C134.581 17.9163 135.393 17.6315 135.326 17.4139C138.646 22.7496 142.709 26.1574 146.028 31.4931C147.289 23.9695 148.741 17.7137 144.502 10.8482Z" fill="#011627"/>
<path d="M168.966 79.6842C168.275 75.5375 167.561 71.3113 165.628 67.5757C164.358 65.1289 162.341 62.7973 159.622 62.3135C159.086 62.2659 158.56 62.1444 158.058 61.9526C157.261 61.57 146.556 55.4777 144.854 54.4166C143.393 53.5057 141.087 51.819 139.924 51.819C138.754 51.7934 134.268 52.8342 116.759 51.4698C116.759 51.4698 111.949 53.3598 108.227 55.6515C108.171 55.6145 90.0541 65.3125 89.3735 65.287C88.0845 65.2329 86.8865 66.0556 86.1475 67.0916C85.4088 68.1276 85.0622 69.4101 84.6994 70.6501C88.6563 79.4346 92.2768 88.2303 96.2341 97.0147C96.4194 97.3456 96.5178 97.7177 96.5203 98.0967C96.4407 98.4899 96.2724 98.8599 96.028 99.1786C94.0873 102.286 94.149 106.195 94.361 109.847C94.5732 113.5 94.8355 117.358 93.1981 120.631C92.7528 121.53 92.1736 122.353 91.75 123.252C90.758 125.287 90.3996 131.798 90.9789 133.985L163.569 136.058C162.009 131.782 168.966 79.6842 168.966 79.6842Z" fill="#011627"/>
<path d="M78.4247 97.4042C78.2799 98.4487 78.2653 99.507 78.3813 100.555L79.4217 115.45C79.5194 116.854 79.6155 118.254 79.7477 119.655C79.9974 122.372 80.3703 125.068 80.8331 127.761C80.8436 128.143 81.0057 128.505 81.284 128.768C81.5622 129.032 81.9339 129.174 82.3173 129.164C86.8972 130.13 91.629 130.092 96.3031 129.829C103.435 129.432 121.683 128.681 122.798 127.237C123.913 125.794 123.263 123.459 121.809 122.291C120.356 121.124 96.2756 118.278 96.2756 118.278C96.5108 116.419 97.2206 114.669 97.8939 112.904C99.1033 109.774 100.233 106.541 100.255 103.188C100.276 99.8352 99.0091 96.3098 96.2538 94.389C93.9874 92.812 91.0693 92.5195 88.3074 92.5844C86.2979 92.642 82.8259 92.162 80.9905 92.9453C79.538 93.5829 78.6961 95.9864 78.4247 97.4042Z" fill="#FBBEBE"/>
<path d="M84.49 70.9175C84.1374 71.2856 83.8639 71.7216 83.6865 72.1989C80.76 78.7737 79.0314 85.8154 78.5817 92.9944C78.5896 93.3445 78.5087 93.6909 78.3464 94.0014C78.1864 94.208 78.0083 94.4 77.8142 94.5752C77.645 94.7752 77.5169 95.0065 77.4374 95.2558C77.3578 95.5051 77.3282 95.7676 77.3504 96.0283C77.3726 96.2891 77.4461 96.5428 77.5667 96.7752C77.6873 97.0076 77.8526 97.2141 78.0532 97.3828C78.0861 97.4104 78.1199 97.437 78.1546 97.4625C78.7519 96.3419 80.1819 95.9756 81.4529 95.8782C87.5387 95.3983 93.4835 98.2207 99.5875 98.0078C99.1568 96.5243 98.5374 95.0988 98.1862 93.5976C96.633 86.9315 100.507 79.6737 98.1319 73.253C97.6575 71.9681 96.8648 70.7049 95.6158 70.1419C95.0986 69.934 94.5575 69.7912 94.0048 69.7169C92.4624 69.439 89.392 68.2516 87.9008 68.728C87.3503 68.905 87.1333 69.4209 86.677 69.7327C85.984 70.174 85.0645 70.3363 84.49 70.9175Z" fill="#011627"/>
<path d="M169.01 92.9453C167.174 92.162 163.702 92.642 161.693 92.5844C158.931 92.5195 156.013 92.812 153.746 94.389C150.991 96.3099 149.724 99.8351 149.745 103.188C149.767 106.541 150.897 109.774 152.106 112.904C152.779 114.669 153.489 116.419 153.724 118.278C153.724 118.278 129.644 121.124 128.191 122.291C126.737 123.459 126.087 125.794 127.202 127.237C128.317 128.681 163.103 130.13 167.683 129.164C168.066 129.174 168.438 129.032 168.716 128.768C168.994 128.505 169.156 128.143 169.167 127.761C169.63 125.068 170.003 122.372 170.252 119.655C170.384 118.254 170.481 116.854 170.578 115.45L171.619 100.555C171.735 99.507 171.72 98.4487 171.575 97.4042C171.304 95.9865 170.462 93.5829 169.01 92.9453Z" fill="#FBBEBE"/>
<path d="M163.323 69.7327C162.867 69.4209 162.65 68.905 162.099 68.728C160.608 68.2516 157.538 69.439 155.995 69.7169C155.443 69.7912 154.901 69.934 154.384 70.1419C153.135 70.7049 152.343 71.9681 151.868 73.253C149.493 79.6737 153.367 86.9315 151.814 93.5976C151.463 95.0988 150.843 96.5243 150.413 98.0078C156.517 98.2207 162.461 95.3983 168.547 95.8782C169.818 95.9756 171.248 96.3419 171.845 97.4625C171.88 97.437 171.914 97.4104 171.947 97.3828C172.147 97.2141 172.313 97.0076 172.433 96.7752C172.554 96.5428 172.627 96.289 172.65 96.0283C172.672 95.7676 172.642 95.5051 172.563 95.2558C172.483 95.0065 172.355 94.7752 172.186 94.5752C171.992 94.4 171.814 94.208 171.654 94.0014C171.491 93.6908 171.41 93.3445 171.418 92.9944C170.969 85.8154 169.24 78.7736 166.314 72.1989C166.136 71.7216 165.863 71.2856 165.51 70.9175C164.936 70.3363 164.016 70.174 163.323 69.7327Z" fill="#011627"/>
<path d="M119.767 129.876C122.764 129.876 125.194 127.454 125.194 124.466C125.194 121.478 122.764 119.056 119.767 119.056C116.77 119.056 114.34 121.478 114.34 124.466C114.34 127.454 116.77 129.876 119.767 129.876Z" fill="#FBBEBE"/>
<path d="M131.784 129.876C134.781 129.876 137.21 127.454 137.21 124.466C137.21 121.478 134.781 119.056 131.784 119.056C128.786 119.056 126.357 121.478 126.357 124.466C126.357 127.454 128.786 129.876 131.784 129.876Z" fill="#FBBEBE"/>
<path d="M165.282 136.656H90.7255C89.8551 136.655 89.0205 136.31 88.405 135.697C87.7895 135.083 87.4432 134.251 87.4422 133.383V88.2935C87.4432 87.4258 87.7895 86.5939 88.405 85.9803C89.0205 85.3667 89.8551 85.0216 90.7255 85.0206H165.282C166.153 85.0216 166.987 85.3667 167.603 85.9803C168.218 86.5939 168.564 87.4258 168.565 88.2935V133.383C168.564 134.251 168.218 135.083 167.603 135.697C166.987 136.31 166.153 136.655 165.282 136.656Z" fill="#FF9E47"/>
<path d="M127.823 113.004C129.023 113.004 129.995 112.034 129.995 110.838C129.995 109.642 129.023 108.673 127.823 108.673C126.623 108.673 125.651 109.642 125.651 110.838C125.651 112.034 126.623 113.004 127.823 113.004Z" fill="white"/>
<path d="M250 127.561H0V135.22H14.7872V137H235.218V135.22H250V127.561Z" fill="#F1F1F1"/>
<path d="M107.232 35.6113C104.002 35.6113 101.383 32.7883 101.383 29.306V26.1534C101.383 22.6711 104.002 19.8481 107.232 19.8481V35.6113H107.232Z" fill="#011627"/>
<path d="M144.57 19.8481C147.801 19.8481 150.42 22.6711 150.42 26.1534V29.306C150.42 32.7883 147.801 35.6113 144.57 35.6113V19.8481Z" fill="#011627"/>
<path d="M147.635 26.6488H146.707C146.707 13.9614 137.131 3.63942 125.36 3.63942C113.589 3.63942 104.012 13.9614 104.012 26.6488H103.084C103.084 13.4098 113.077 2.63902 125.36 2.63902C137.643 2.63902 147.635 13.4098 147.635 26.6488Z" fill="#011627"/>
</svg>
