<?xml version="1.0" encoding="UTF-8"?><svg xmlns="http://www.w3.org/2000/svg" xmlns:xlink="http://www.w3.org/1999/xlink" contentScriptType="text/ecmascript" width="30pt" zoomAndPan="magnify" contentStyleType="text/css" viewBox="0 0 30 31.5" height="31.5pt" preserveAspectRatio="xMidYMid meet" version="1.2"><defs><clipPath xml:id="clip1" id="clip1"><path d="M 2.449219 4 L 13 4 L 13 14 L 2.449219 14 Z M 2.449219 4 "/></clipPath><clipPath xml:id="clip2" id="clip2"><path d="M 18 24 L 26.8125 24 L 26.8125 27 L 18 27 Z M 18 24 "/></clipPath><clipPath xml:id="clip3" id="clip3"><path d="M 18 8 L 26.8125 8 L 26.8125 10 L 18 10 Z M 18 8 "/></clipPath><clipPath xml:id="clip4" id="clip4"><path d="M 2.449219 24 L 11 24 L 11 27 L 2.449219 27 Z M 2.449219 24 "/></clipPath><clipPath xml:id="clip5" id="clip5"><path d="M 2.449219 20 L 11 20 L 11 25 L 2.449219 25 Z M 2.449219 20 "/></clipPath><clipPath xml:id="clip6" id="clip6"><path d="M 18 20 L 26.8125 20 L 26.8125 25 L 18 25 Z M 18 20 "/></clipPath><clipPath xml:id="clip7" id="clip7"><path d="M 18 4 L 26.8125 4 L 26.8125 9 L 18 9 Z M 18 4 "/></clipPath><clipPath xml:id="clip8" id="clip8"><path d="M 2.449219 3.792969 L 26.8125 3.792969 L 26.8125 28.15625 L 2.449219 28.15625 Z M 2.449219 3.792969 "/></clipPath></defs><g xml:id="surface1" id="surface1"><g clip-rule="nonzero" clip-path="url(#clip1)"><path style=" stroke:none;fill-rule:nonzero;fill:rgb(41.178894%,83.918762%,95.689392%);fill-opacity:1;" d="M 12.316406 8.921875 C 12.316406 11.539062 10.195312 13.660156 7.578125 13.660156 C 4.964844 13.660156 2.84375 11.539062 2.84375 8.921875 C 2.84375 6.308594 4.964844 4.1875 7.578125 4.1875 C 10.195312 4.1875 12.316406 6.308594 12.316406 8.921875 "/></g><path style=" stroke:none;fill-rule:nonzero;fill:rgb(66.668701%,69.799805%,74.119568%);fill-opacity:1;" d="M 24.15625 9.710938 L 24.15625 11.292969 L 20.996094 11.292969 L 20.996094 9.710938 L 24.15625 9.710938 "/><path style=" stroke:none;fill-rule:nonzero;fill:rgb(66.668701%,69.799805%,74.119568%);fill-opacity:1;" d="M 8.367188 26.289062 L 8.367188 27.867188 L 5.210938 27.867188 L 5.210938 26.289062 L 8.367188 26.289062 "/><path style=" stroke:none;fill-rule:nonzero;fill:rgb(66.668701%,69.799805%,74.119568%);fill-opacity:1;" d="M 24.15625 26.289062 L 24.15625 27.867188 L 20.996094 27.867188 L 20.996094 26.289062 L 24.15625 26.289062 "/><g clip-rule="nonzero" clip-path="url(#clip2)"><path style=" stroke:none;fill-rule:nonzero;fill:rgb(79.998779%,81.959534%,85.099792%);fill-opacity:1;" d="M 26.523438 24.707031 L 26.523438 25.496094 C 26.523438 25.933594 26.167969 26.289062 25.734375 26.289062 L 19.417969 26.289062 C 18.984375 26.289062 18.632812 25.9375 18.628906 25.503906 L 18.628906 24.707031 L 26.523438 24.707031 "/></g><g clip-rule="nonzero" clip-path="url(#clip3)"><path style=" stroke:none;fill-rule:nonzero;fill:rgb(79.998779%,81.959534%,85.099792%);fill-opacity:1;" d="M 26.523438 8.132812 L 26.523438 8.921875 C 26.523438 9.355469 26.167969 9.710938 25.734375 9.710938 L 19.417969 9.710938 C 18.984375 9.710938 18.628906 9.355469 18.628906 8.921875 L 18.628906 8.132812 L 26.523438 8.132812 "/></g><g clip-rule="nonzero" clip-path="url(#clip4)"><path style=" stroke:none;fill-rule:nonzero;fill:rgb(79.998779%,81.959534%,85.099792%);fill-opacity:1;" d="M 10.738281 24.707031 L 10.738281 25.503906 C 10.730469 25.9375 10.378906 26.289062 9.949219 26.289062 L 3.632812 26.289062 C 3.199219 26.289062 2.84375 25.933594 2.84375 25.496094 L 2.84375 24.707031 L 10.738281 24.707031 "/></g><g clip-rule="nonzero" clip-path="url(#clip5)"><path style=" stroke:none;fill-rule:nonzero;fill:rgb(41.178894%,83.918762%,95.689392%);fill-opacity:1;" d="M 5.578125 20.761719 L 9.949219 20.761719 C 10.378906 20.761719 10.738281 21.117188 10.738281 21.550781 L 10.738281 24.707031 L 2.84375 24.707031 L 2.84375 21.550781 C 2.84375 21.117188 3.199219 20.761719 3.632812 20.761719 L 5.578125 20.761719 "/></g><g clip-rule="nonzero" clip-path="url(#clip6)"><path style=" stroke:none;fill-rule:nonzero;fill:rgb(41.178894%,83.918762%,95.689392%);fill-opacity:1;" d="M 26.523438 21.550781 L 26.523438 24.707031 L 18.628906 24.707031 L 18.628906 21.550781 C 18.628906 21.117188 18.984375 20.761719 19.417969 20.761719 L 25.734375 20.761719 C 26.167969 20.761719 26.523438 21.117188 26.523438 21.550781 "/></g><g clip-rule="nonzero" clip-path="url(#clip7)"><path style=" stroke:none;fill-rule:nonzero;fill:rgb(41.178894%,83.918762%,95.689392%);fill-opacity:1;" d="M 18.628906 6.550781 L 18.628906 4.976562 C 18.628906 4.542969 18.984375 4.1875 19.417969 4.1875 L 25.734375 4.1875 C 26.167969 4.1875 26.523438 4.542969 26.523438 4.976562 L 26.523438 8.132812 L 18.628906 8.132812 L 18.628906 6.550781 "/></g><path style=" stroke:none;fill-rule:nonzero;fill:rgb(100%,50.979614%,43.139648%);fill-opacity:1;" d="M 14.683594 17.605469 C 15.117188 17.605469 15.472656 17.960938 15.472656 18.394531 C 15.472656 18.828125 15.117188 19.183594 14.683594 19.183594 C 14.25 19.183594 13.894531 18.828125 13.894531 18.394531 C 13.894531 17.960938 14.25 17.605469 14.683594 17.605469 "/><g clip-rule="nonzero" clip-path="url(#clip8)"><path style=" stroke:none;fill-rule:nonzero;fill:rgb(0%,0%,0%);fill-opacity:1;" d="M 23.757812 10.894531 L 21.390625 10.894531 L 21.390625 10.105469 L 23.757812 10.105469 Z M 24.550781 16.027344 C 24.550781 17.53125 24.199219 19.027344 23.539062 20.367188 L 19.417969 20.367188 C 18.765625 20.367188 18.234375 20.898438 18.234375 21.550781 L 18.234375 25.230469 C 15.96875 26.105469 13.398438 26.105469 11.132812 25.230469 L 11.132812 21.550781 C 11.132812 20.898438 10.601562 20.367188 9.949219 20.367188 L 5.824219 20.367188 C 5.167969 19.023438 4.816406 17.53125 4.816406 16.027344 C 4.816406 15.148438 4.9375 14.285156 5.164062 13.449219 C 5.886719 13.832031 6.707031 14.054688 7.578125 14.054688 C 10.410156 14.054688 12.710938 11.753906 12.710938 8.921875 C 12.710938 8.050781 12.488281 7.230469 12.105469 6.507812 C 12.941406 6.28125 13.804688 6.160156 14.683594 6.160156 C 15.910156 6.160156 17.101562 6.386719 18.234375 6.820312 L 18.234375 8.921875 C 18.234375 9.578125 18.765625 10.105469 19.417969 10.105469 L 20.601562 10.105469 L 20.601562 10.894531 L 19.8125 10.894531 L 19.8125 11.6875 L 23.539062 11.6875 C 24.207031 13.039062 24.550781 14.5 24.550781 16.027344 Z M 26.128906 21.550781 L 26.128906 24.3125 L 19.023438 24.3125 L 19.023438 21.550781 C 19.023438 21.335938 19.203125 21.15625 19.417969 21.15625 L 25.734375 21.15625 C 25.949219 21.15625 26.128906 21.335938 26.128906 21.550781 Z M 25.734375 25.894531 L 19.417969 25.894531 C 19.203125 25.894531 19.023438 25.714844 19.023438 25.496094 L 19.023438 25.101562 L 26.128906 25.101562 L 26.128906 25.496094 C 26.128906 25.714844 25.949219 25.894531 25.734375 25.894531 Z M 23.757812 27.472656 L 21.390625 27.472656 L 21.390625 26.683594 L 23.757812 26.683594 Z M 9.949219 25.894531 L 3.632812 25.894531 C 3.414062 25.894531 3.238281 25.714844 3.238281 25.496094 L 3.238281 25.101562 L 10.34375 25.101562 L 10.34375 25.496094 C 10.34375 25.714844 10.164062 25.894531 9.949219 25.894531 Z M 7.972656 27.472656 L 5.605469 27.472656 L 5.605469 26.683594 L 7.972656 26.683594 Z M 3.632812 21.15625 L 9.949219 21.15625 C 10.164062 21.15625 10.34375 21.335938 10.34375 21.550781 L 10.34375 24.3125 L 3.238281 24.3125 L 3.238281 21.550781 C 3.238281 21.335938 3.414062 21.15625 3.632812 21.15625 Z M 6.113281 4.84375 C 5.894531 5.203125 5.710938 5.652344 5.566406 6.160156 L 4.234375 6.160156 C 4.726562 5.566406 5.375 5.109375 6.113281 4.84375 Z M 10.925781 6.160156 L 9.59375 6.160156 C 9.449219 5.652344 9.265625 5.203125 9.046875 4.84375 C 9.785156 5.109375 10.433594 5.566406 10.925781 6.160156 Z M 9.9375 8.527344 C 9.921875 7.96875 9.867188 7.4375 9.777344 6.949219 L 11.441406 6.949219 C 11.6875 7.429688 11.851562 7.964844 11.902344 8.527344 Z M 11.441406 10.894531 L 9.777344 10.894531 C 9.867188 10.40625 9.921875 9.878906 9.9375 9.316406 L 11.902344 9.316406 C 11.851562 9.882812 11.6875 10.414062 11.441406 10.894531 Z M 9.59375 11.6875 L 10.925781 11.6875 C 10.433594 12.28125 9.785156 12.738281 9.046875 13.003906 C 9.265625 12.640625 9.449219 12.195312 9.59375 11.6875 Z M 6.390625 11.6875 L 8.769531 11.6875 C 8.457031 12.660156 8.003906 13.265625 7.578125 13.265625 C 7.15625 13.265625 6.703125 12.660156 6.390625 11.6875 Z M 5.566406 11.6875 C 5.710938 12.195312 5.894531 12.640625 6.113281 13.003906 C 5.375 12.738281 4.726562 12.28125 4.234375 11.6875 Z M 5.21875 9.316406 C 5.238281 9.878906 5.292969 10.40625 5.382812 10.894531 L 3.71875 10.894531 C 3.46875 10.414062 3.308594 9.882812 3.257812 9.316406 Z M 5.21875 8.527344 L 3.257812 8.527344 C 3.308594 7.964844 3.46875 7.429688 3.71875 6.949219 L 5.382812 6.949219 C 5.292969 7.4375 5.238281 7.96875 5.21875 8.527344 Z M 9.148438 9.316406 C 9.128906 9.890625 9.0625 10.417969 8.96875 10.894531 L 6.191406 10.894531 C 6.09375 10.417969 6.03125 9.890625 6.007812 9.316406 Z M 8.96875 6.949219 C 9.0625 7.429688 9.128906 7.957031 9.148438 8.527344 L 6.007812 8.527344 C 6.03125 7.957031 6.09375 7.429688 6.191406 6.949219 Z M 7.578125 4.582031 C 8.003906 4.582031 8.457031 5.183594 8.769531 6.160156 L 6.390625 6.160156 C 6.703125 5.183594 7.15625 4.582031 7.578125 4.582031 Z M 19.417969 4.582031 L 25.734375 4.582031 C 25.949219 4.582031 26.128906 4.757812 26.128906 4.976562 L 26.128906 7.738281 L 19.023438 7.738281 L 19.023438 4.976562 C 19.023438 4.757812 19.203125 4.582031 19.417969 4.582031 Z M 25.734375 9.316406 L 19.417969 9.316406 C 19.203125 9.316406 19.023438 9.140625 19.023438 8.921875 L 19.023438 8.527344 L 26.128906 8.527344 L 26.128906 8.921875 C 26.128906 9.140625 25.949219 9.316406 25.734375 9.316406 Z M 25.734375 10.105469 C 26.386719 10.105469 26.917969 9.578125 26.917969 8.921875 L 26.917969 4.976562 C 26.917969 4.324219 26.386719 3.792969 25.734375 3.792969 L 19.417969 3.792969 C 18.765625 3.792969 18.234375 4.324219 18.234375 4.976562 L 18.234375 5.980469 C 17.097656 5.578125 15.90625 5.371094 14.683594 5.371094 C 13.648438 5.371094 12.632812 5.527344 11.652344 5.816406 C 10.714844 4.589844 9.242188 3.792969 7.578125 3.792969 C 4.75 3.792969 2.449219 6.09375 2.449219 8.921875 C 2.449219 10.582031 3.246094 12.058594 4.472656 12.996094 C 4.183594 13.976562 4.027344 14.992188 4.027344 16.027344 C 4.027344 17.523438 4.34375 19.007812 4.949219 20.367188 L 3.632812 20.367188 C 2.980469 20.367188 2.449219 20.898438 2.449219 21.550781 L 2.449219 25.496094 C 2.449219 26.152344 2.980469 26.683594 3.632812 26.683594 L 4.816406 26.683594 L 4.816406 27.472656 L 4.027344 27.472656 L 4.027344 28.261719 L 9.550781 28.261719 L 9.550781 27.472656 L 8.761719 27.472656 L 8.761719 26.683594 L 9.949219 26.683594 C 10.410156 26.683594 10.804688 26.414062 11 26.027344 C 12.179688 26.460938 13.414062 26.683594 14.683594 26.683594 C 15.953125 26.683594 17.1875 26.460938 18.367188 26.027344 C 18.558594 26.414062 18.957031 26.683594 19.417969 26.683594 L 20.601562 26.683594 L 20.601562 27.472656 L 19.8125 27.472656 L 19.8125 28.261719 L 25.339844 28.261719 L 25.339844 27.472656 L 24.550781 27.472656 L 24.550781 26.683594 L 25.734375 26.683594 C 26.386719 26.683594 26.917969 26.152344 26.917969 25.496094 L 26.917969 21.550781 C 26.917969 20.898438 26.386719 20.367188 25.734375 20.367188 L 24.417969 20.367188 C 25.019531 19.007812 25.339844 17.523438 25.339844 16.027344 C 25.339844 14.53125 25.019531 13.042969 24.417969 11.6875 L 25.339844 11.6875 L 25.339844 10.894531 L 24.550781 10.894531 L 24.550781 10.105469 L 25.734375 10.105469 "/></g><path style=" stroke:none;fill-rule:nonzero;fill:rgb(0%,0%,0%);fill-opacity:1;" d="M 14.683594 18.789062 C 14.464844 18.789062 14.289062 18.613281 14.289062 18.394531 C 14.289062 18.175781 14.464844 18 14.683594 18 C 14.898438 18 15.078125 18.175781 15.078125 18.394531 C 15.078125 18.613281 14.898438 18.789062 14.683594 18.789062 Z M 14.683594 17.210938 C 14.03125 17.210938 13.5 17.742188 13.5 18.394531 C 13.5 19.046875 14.03125 19.578125 14.683594 19.578125 C 15.335938 19.578125 15.867188 19.046875 15.867188 18.394531 C 15.867188 17.742188 15.335938 17.210938 14.683594 17.210938 "/><path style=" stroke:none;fill-rule:nonzero;fill:rgb(0%,0%,0%);fill-opacity:1;" d="M 12.730469 16.441406 L 13.289062 17 C 13.660156 16.625 14.15625 16.421875 14.683594 16.421875 C 15.210938 16.421875 15.703125 16.625 16.078125 17 L 16.636719 16.441406 C 16.113281 15.917969 15.421875 15.632812 14.683594 15.632812 C 13.945312 15.632812 13.25 15.917969 12.730469 16.441406 "/><path style=" stroke:none;fill-rule:nonzero;fill:rgb(0%,0%,0%);fill-opacity:1;" d="M 11.613281 15.324219 L 12.171875 15.882812 C 13.554688 14.496094 15.808594 14.496094 17.195312 15.882812 L 17.753906 15.324219 C 16.058594 13.632812 13.304688 13.632812 11.613281 15.324219 "/><path style=" stroke:none;fill-rule:nonzero;fill:rgb(0%,0%,0%);fill-opacity:1;" d="M 10.496094 14.210938 L 11.054688 14.765625 C 12.023438 13.796875 13.3125 13.265625 14.683594 13.265625 C 16.054688 13.265625 17.34375 13.796875 18.308594 14.765625 L 18.867188 14.210938 C 17.75 13.089844 16.265625 12.476562 14.683594 12.476562 C 13.101562 12.476562 11.617188 13.089844 10.496094 14.210938 "/></g></svg>