<?xml version="1.0" encoding="UTF-8"?><svg xmlns="http://www.w3.org/2000/svg" xmlns:xlink="http://www.w3.org/1999/xlink" contentScriptType="text/ecmascript" width="30pt" zoomAndPan="magnify" contentStyleType="text/css" viewBox="0 0 30 31.5" height="31.5pt" preserveAspectRatio="xMidYMid meet" version="1.2"><defs><clipPath xml:id="clip1" id="clip1"><path d="M 1.148438 7 L 6 7 L 6 16 L 1.148438 16 Z M 1.148438 7 "/></clipPath><clipPath xml:id="clip2" id="clip2"><path d="M 2 4.355469 L 6 4.355469 L 6 8 L 2 8 Z M 2 4.355469 "/></clipPath><clipPath xml:id="clip3" id="clip3"><path d="M 1.148438 8 L 3 8 L 3 16 L 1.148438 16 Z M 1.148438 8 "/></clipPath><clipPath xml:id="clip4" id="clip4"><path d="M 1.148438 8 L 6 8 L 6 16 L 1.148438 16 Z M 1.148438 8 "/></clipPath><clipPath xml:id="clip5" id="clip5"><path d="M 16 6 L 29.203125 6 L 29.203125 14 L 16 14 Z M 16 6 "/></clipPath><clipPath xml:id="clip6" id="clip6"><path d="M 27 12 L 29.203125 12 L 29.203125 23 L 27 23 Z M 27 12 "/></clipPath><clipPath xml:id="clip7" id="clip7"><path d="M 7 19 L 29 19 L 29 27.242188 L 7 27.242188 Z M 7 19 "/></clipPath></defs><g xml:id="surface1" id="surface1"><path style=" stroke:none;fill-rule:nonzero;fill:rgb(86.669922%,53.329468%,40.779114%);fill-opacity:1;" d="M 8.476562 14.511719 L 8.878906 14.101562 C 8.878906 14.101562 9.035156 14.371094 9.113281 14.425781 C 9.113281 14.425781 9.441406 14.527344 9.601562 14.816406 L 9.855469 15.257812 C 9.855469 15.257812 9.878906 15.414062 9.726562 15.308594 C 9.726562 15.308594 9.976562 15.679688 9.964844 15.765625 C 9.964844 15.765625 9.949219 15.832031 9.894531 15.816406 C 9.894531 15.816406 9.914062 16.050781 9.761719 15.933594 C 9.761719 15.933594 9.726562 16.0625 9.628906 16.015625 C 9.628906 16.015625 9.585938 16.164062 9.464844 16.019531 C 9.34375 15.875 8.753906 15.214844 8.695312 14.960938 L 8.621094 14.722656 L 8.476562 14.511719 "/><path style=" stroke:none;fill-rule:nonzero;fill:rgb(78.039551%,44.709778%,34.118652%);fill-opacity:1;" d="M 8.878906 14.101562 L 8.476562 14.511719 L 8.621094 14.722656 L 8.695312 14.960938 C 8.753906 15.214844 9.34375 15.875 9.464844 16.019531 C 9.585938 16.164062 9.628906 16.015625 9.628906 16.015625 C 9.652344 16.027344 9.667969 16.027344 9.683594 16.023438 C 9.542969 15.832031 9.234375 15.480469 9.121094 15.355469 C 8.980469 15.203125 8.753906 14.839844 8.785156 14.792969 C 8.808594 14.761719 8.972656 14.5 9.058594 14.367188 C 8.976562 14.273438 8.878906 14.101562 8.878906 14.101562 "/><path style=" stroke:none;fill-rule:nonzero;fill:rgb(18.818665%,16.859436%,34.118652%);fill-opacity:1;" d="M 5.015625 7.859375 C 5.015625 7.859375 5.132812 7.828125 5.566406 8.347656 C 6.003906 8.863281 6.792969 11.28125 6.953125 11.59375 C 6.953125 11.59375 8.996094 13.851562 9.140625 14.105469 C 9.140625 14.105469 9.074219 14.617188 8.386719 14.734375 C 8.386719 14.734375 6.375 12.878906 5.871094 12.179688 C 5.871094 12.179688 4.492188 7.914062 5.015625 7.859375 "/><path style=" stroke:none;fill-rule:nonzero;fill:rgb(9.01947%,7.839966%,9.408569%);fill-opacity:1;" d="M 4.066406 24.738281 L 4.359375 24.652344 L 4.105469 24.457031 L 4.027344 24.632812 L 4.066406 24.738281 "/><path style=" stroke:none;fill-rule:nonzero;fill:rgb(16.079712%,14.118958%,27.839661%);fill-opacity:1;" d="M 4.0625 24.671875 L 4.066406 24.738281 L 3.5625 24.554688 C 3.5625 24.554688 3.445312 23.792969 3.621094 23.40625 L 4.601562 23.5 L 4.742188 23.886719 C 4.742188 23.886719 5.347656 24.382812 5.757812 24.636719 C 5.757812 24.636719 6.027344 24.789062 6.003906 24.996094 C 6.003906 24.996094 5.925781 25.375 5.304688 25.171875 C 5.304688 25.171875 4.867188 25.019531 4.558594 24.894531 C 4.558594 24.894531 4.226562 24.648438 4.0625 24.671875 "/><path style=" stroke:none;fill-rule:nonzero;fill:rgb(12.159729%,10.978699%,18.818665%);fill-opacity:1;" d="M 4.0625 24.671875 C 4.226562 24.648438 4.558594 24.894531 4.558594 24.894531 C 4.867188 25.019531 5.304688 25.171875 5.304688 25.171875 C 5.925781 25.375 6.003906 24.996094 6.003906 24.996094 C 6.011719 24.949219 6 24.90625 5.980469 24.867188 C 5.75 25.191406 3.875 24.128906 4.179688 24.128906 C 4.359375 24.128906 4.605469 24.027344 4.800781 23.933594 C 4.765625 23.90625 4.742188 23.886719 4.742188 23.886719 L 4.601562 23.5 L 3.621094 23.40625 C 3.445312 23.792969 3.5625 24.554688 3.5625 24.554688 L 4.066406 24.738281 L 4.0625 24.671875 "/><path style=" stroke:none;fill-rule:nonzero;fill:rgb(9.01947%,7.839966%,9.408569%);fill-opacity:1;" d="M 2.671875 25.808594 L 2.964844 25.722656 L 2.710938 25.527344 L 2.632812 25.703125 L 2.671875 25.808594 "/><path style=" stroke:none;fill-rule:nonzero;fill:rgb(16.079712%,14.118958%,27.839661%);fill-opacity:1;" d="M 2.667969 25.742188 L 2.671875 25.808594 L 2.167969 25.625 C 2.167969 25.625 2.054688 24.867188 2.226562 24.476562 L 3.207031 24.570312 L 3.351562 24.957031 C 3.351562 24.957031 3.957031 25.453125 4.363281 25.707031 C 4.363281 25.707031 4.636719 25.859375 4.613281 26.066406 C 4.613281 26.066406 4.53125 26.445312 3.914062 26.242188 C 3.914062 26.242188 3.476562 26.089844 3.167969 25.964844 C 3.167969 25.964844 2.832031 25.71875 2.667969 25.742188 "/><path style=" stroke:none;fill-rule:nonzero;fill:rgb(12.159729%,10.978699%,18.818665%);fill-opacity:1;" d="M 2.667969 25.742188 C 2.832031 25.71875 3.167969 25.964844 3.167969 25.964844 C 3.476562 26.089844 3.914062 26.242188 3.914062 26.242188 C 4.53125 26.445312 4.613281 26.066406 4.613281 26.066406 C 4.617188 26.019531 4.605469 25.976562 4.589844 25.9375 C 4.359375 26.261719 2.484375 25.199219 2.789062 25.199219 C 2.964844 25.199219 3.214844 25.097656 3.410156 25.003906 C 3.371094 24.976562 3.351562 24.957031 3.351562 24.957031 L 3.207031 24.570312 L 2.226562 24.476562 C 2.054688 24.867188 2.167969 25.625 2.167969 25.625 L 2.671875 25.808594 L 2.667969 25.742188 "/><path style=" stroke:none;fill-rule:nonzero;fill:rgb(23.529053%,21.179199%,45.098877%);fill-opacity:1;" d="M 5.28125 14.570312 C 5.28125 14.570312 5.074219 18.972656 4.957031 19.664062 C 4.957031 19.664062 4.730469 23.253906 4.738281 23.699219 C 4.738281 23.699219 4.542969 24.035156 3.589844 23.453125 C 3.589844 23.453125 3.433594 15.976562 3.429688 15.625 C 3.429688 15.273438 5.28125 14.570312 5.28125 14.570312 "/><path style=" stroke:none;fill-rule:nonzero;fill:rgb(18.818665%,16.859436%,34.118652%);fill-opacity:1;" d="M 5.28125 14.570312 C 5.28125 14.570312 3.429688 15.273438 3.429688 15.625 C 3.433594 15.976562 3.589844 23.453125 3.589844 23.453125 C 3.757812 23.554688 3.894531 23.625 4.019531 23.679688 C 4.117188 23.175781 4.242188 20.363281 4.191406 19.941406 C 4.132812 19.484375 4.511719 15.875 4.574219 15.730469 C 4.625 15.609375 5.078125 15.355469 5.238281 15.269531 C 5.265625 14.851562 5.28125 14.570312 5.28125 14.570312 "/><path style=" stroke:none;fill-rule:nonzero;fill:rgb(23.529053%,21.179199%,45.098877%);fill-opacity:1;" d="M 2.117188 14.371094 C 2.117188 14.371094 2.042969 14.992188 2.167969 16.421875 C 2.292969 17.847656 2.355469 19.820312 2.359375 19.929688 C 2.359375 19.929688 2.125 20.398438 2.078125 21.246094 C 2.03125 22.09375 2.171875 24.046875 2.117188 24.605469 C 2.117188 24.605469 2.808594 25.191406 3.320312 24.792969 C 3.320312 24.792969 3.996094 16.085938 4.210938 15.730469 C 4.210938 15.730469 4.648438 14.59375 4.519531 14.210938 C 4.390625 13.832031 2.25 14.050781 2.117188 14.371094 "/><path style=" stroke:none;fill-rule:nonzero;fill:rgb(18.818665%,16.859436%,34.118652%);fill-opacity:1;" d="M 2.46875 24.824219 C 2.199219 21.988281 2.953125 20.410156 2.886719 19.792969 C 2.820312 19.15625 2.8125 15.585938 2.8125 15.585938 C 3.300781 15.699219 3.941406 15.570312 4.300781 15.480469 C 4.394531 15.207031 4.527344 14.761719 4.542969 14.449219 L 2.113281 14.375 C 2.113281 14.382812 2.113281 14.394531 2.113281 14.410156 C 2.113281 14.417969 2.109375 14.425781 2.109375 14.433594 L 2.109375 14.453125 C 2.109375 14.460938 2.105469 14.472656 2.105469 14.484375 C 2.105469 14.492188 2.105469 14.5 2.105469 14.511719 C 2.105469 14.523438 2.105469 14.535156 2.101562 14.550781 C 2.101562 14.558594 2.101562 14.570312 2.101562 14.582031 C 2.101562 14.597656 2.101562 14.613281 2.097656 14.628906 C 2.097656 14.640625 2.097656 14.65625 2.097656 14.667969 C 2.097656 14.6875 2.097656 14.703125 2.097656 14.722656 C 2.097656 14.738281 2.097656 14.753906 2.09375 14.773438 C 2.09375 14.792969 2.09375 14.8125 2.09375 14.832031 C 2.09375 14.851562 2.09375 14.871094 2.09375 14.890625 C 2.09375 14.914062 2.09375 14.9375 2.09375 14.960938 C 2.09375 14.980469 2.09375 15.003906 2.09375 15.023438 C 2.09375 15.050781 2.09375 15.074219 2.09375 15.101562 C 2.09375 15.125 2.097656 15.148438 2.097656 15.171875 C 2.097656 15.203125 2.097656 15.230469 2.097656 15.261719 C 2.097656 15.289062 2.097656 15.3125 2.101562 15.339844 C 2.101562 15.371094 2.101562 15.40625 2.105469 15.4375 C 2.105469 15.464844 2.105469 15.492188 2.105469 15.523438 C 2.109375 15.558594 2.109375 15.59375 2.113281 15.632812 C 2.113281 15.660156 2.113281 15.691406 2.117188 15.722656 C 2.117188 15.761719 2.121094 15.804688 2.125 15.847656 C 2.125 15.875 2.128906 15.90625 2.128906 15.9375 C 2.132812 15.984375 2.136719 16.035156 2.140625 16.089844 C 2.140625 16.117188 2.144531 16.140625 2.144531 16.171875 C 2.152344 16.25 2.160156 16.332031 2.167969 16.421875 C 2.292969 17.847656 2.355469 19.820312 2.359375 19.929688 C 2.359375 19.929688 2.125 20.398438 2.078125 21.246094 C 2.03125 22.09375 2.171875 24.046875 2.117188 24.605469 C 2.117188 24.605469 2.261719 24.730469 2.46875 24.824219 "/><g clip-rule="nonzero" clip-path="url(#clip1)"><path style=" stroke:none;fill-rule:nonzero;fill:rgb(23.529053%,21.179199%,45.098877%);fill-opacity:1;" d="M 1.917969 8.902344 C 1.917969 8.902344 2.371094 8.496094 3.523438 7.90625 C 3.746094 7.792969 4.507812 7.867188 5.015625 7.859375 C 5.3125 7.851562 5.890625 9.246094 5.597656 10.875 C 5.597656 10.875 5.601562 14.085938 5.503906 14.613281 C 5.503906 14.613281 4.949219 15.304688 3.730469 15.304688 C 3.730469 15.304688 2.917969 15.304688 1.980469 14.6875 C 1.980469 14.6875 1.695312 13.503906 2.054688 12.5 C 2.054688 12.5 2.292969 11.503906 2.082031 10.925781 C 1.945312 10.539062 1.453125 9.121094 1.917969 8.902344 "/></g><path style=" stroke:none;fill-rule:nonzero;fill:rgb(57.249451%,51.759338%,79.219055%);fill-opacity:1;" d="M 6.726562 18.359375 L 11.46875 15.640625 L 11.46875 10.191406 L 6.726562 12.902344 L 6.726562 18.359375 "/><path style=" stroke:none;fill-rule:nonzero;fill:rgb(42.749023%,41.178894%,67.059326%);fill-opacity:1;" d="M 5.148438 17.457031 L 6.726562 18.359375 L 6.726562 12.464844 L 5.148438 11.992188 L 5.148438 17.457031 "/><path style=" stroke:none;fill-rule:nonzero;fill:rgb(71.369934%,68.238831%,87.059021%);fill-opacity:1;" d="M 6.726562 12.902344 L 11.46875 10.191406 L 9.886719 9.277344 L 5.148438 11.992188 L 6.726562 12.902344 "/><path style=" stroke:none;fill-rule:nonzero;fill:rgb(64.709473%,59.609985%,82.749939%);fill-opacity:1;" d="M 9.042969 10.46875 L 9.039062 8.546875 C 9.039062 7.632812 8.558594 7.125 7.972656 7.410156 C 7.382812 7.695312 7.050781 8.785156 7.058594 9.71875 L 6.933594 11.742188 L 6.894531 12.269531 L 6.304688 12.074219 L 6.285156 9.941406 C 6.269531 8.445312 7.027344 6.863281 7.964844 6.414062 C 8.90625 5.964844 10.21875 6.648438 10.21875 8.097656 L 9.671875 10.136719 L 9.636719 10.664062 L 9.042969 10.46875 "/><path style=" stroke:none;fill-rule:nonzero;fill:rgb(84.309387%,80.778503%,92.158508%);fill-opacity:1;" d="M 9.636719 10.664062 L 9.632812 8.742188 C 9.632812 7.828125 9.152344 7.320312 8.5625 7.605469 C 7.976562 7.894531 7.503906 8.882812 7.507812 9.816406 L 7.523438 11.9375 L 6.894531 12.269531 L 6.878906 10.136719 C 6.863281 8.640625 7.617188 7.058594 8.558594 6.609375 C 9.5 6.160156 10.265625 6.972656 10.265625 8.421875 L 10.265625 10.332031 L 9.636719 10.664062 "/><path style=" stroke:none;fill-rule:nonzero;fill:rgb(42.749023%,41.178894%,67.059326%);fill-opacity:1;" d="M 7.453125 14.753906 C 7.453125 15.667969 8.140625 16.15625 8.988281 15.847656 C 9.835938 15.535156 10.523438 14.5625 10.523438 13.671875 C 10.523438 12.78125 9.835938 12.292969 8.988281 12.578125 C 8.140625 12.867188 7.453125 13.839844 7.453125 14.753906 "/><path style=" stroke:none;fill-rule:nonzero;fill:rgb(64.709473%,59.609985%,82.749939%);fill-opacity:1;" d="M 7.714844 14.820312 C 7.714844 15.734375 8.402344 16.222656 9.253906 15.914062 C 10.101562 15.601562 10.789062 14.628906 10.789062 13.738281 C 10.789062 12.847656 10.101562 12.359375 9.253906 12.644531 C 8.402344 12.933594 7.714844 13.90625 7.714844 14.820312 "/><path style=" stroke:none;fill-rule:nonzero;fill:rgb(23.529053%,21.179199%,45.098877%);fill-opacity:1;" d="M 8.859375 14.328125 C 8.859375 14.050781 9.085938 13.691406 9.363281 13.527344 C 9.640625 13.367188 9.863281 13.457031 9.863281 13.726562 C 9.863281 13.933594 9.734375 14.191406 9.546875 14.378906 L 9.546875 15.257812 L 9.175781 15.492188 L 9.175781 14.605469 C 8.992188 14.644531 8.859375 14.539062 8.859375 14.328125 "/><path style=" stroke:none;fill-rule:nonzero;fill:rgb(95.289612%,54.119873%,37.649536%);fill-opacity:1;" d="M 4.34375 7.824219 C 4.34375 7.824219 4.304688 8.191406 4.359375 8.554688 C 4.359375 8.554688 4.265625 8.847656 4.15625 8.902344 C 4.15625 8.902344 3.316406 8.703125 2.964844 8.15625 C 2.964844 8.15625 3.1875 7.617188 2.992188 6.71875 L 3.148438 6.644531 L 4.34375 7.824219 "/><path style=" stroke:none;fill-rule:nonzero;fill:rgb(81.568909%,41.958618%,27.839661%);fill-opacity:1;" d="M 2.964844 8.15625 C 3.0625 8.308594 3.199219 8.433594 3.34375 8.535156 C 3.257812 8.269531 3.226562 7.644531 3.226562 7.644531 C 3.609375 7.960938 4.097656 8.101562 4.328125 8.15625 C 4.328125 7.964844 4.34375 7.824219 4.34375 7.824219 L 3.148438 6.644531 L 2.992188 6.71875 C 3.1875 7.617188 2.964844 8.15625 2.964844 8.15625 "/><path style=" stroke:none;fill-rule:nonzero;fill:rgb(97.24884%,61.959839%,46.269226%);fill-opacity:1;" d="M 4.867188 5.578125 L 4.960938 6.277344 C 4.960938 6.277344 4.964844 6.960938 4.910156 7.265625 C 4.910156 7.265625 4.730469 7.914062 4.714844 7.96875 C 4.714844 7.96875 4.527344 8.085938 4.277344 8.023438 C 4.089844 7.976562 3.554688 7.789062 3.351562 7.476562 C 3.351562 7.476562 3.089844 7.035156 3.09375 6.894531 C 3.09375 6.894531 3.035156 7.027344 2.941406 6.863281 C 2.847656 6.695312 2.808594 6.378906 2.835938 6.285156 C 2.863281 6.1875 2.996094 6.230469 3.023438 6.230469 C 3.054688 6.230469 3.101562 6.269531 3.125 6.367188 C 3.152344 6.464844 3.023438 5.710938 3.222656 5.457031 C 3.515625 5.085938 4.417969 4.921875 4.867188 5.578125 "/><path style=" stroke:none;fill-rule:nonzero;fill:rgb(88.62915%,50.588989%,34.509277%);fill-opacity:1;" d="M 4.867188 5.578125 C 4.417969 4.921875 3.515625 5.085938 3.222656 5.457031 C 3.023438 5.710938 3.152344 6.464844 3.125 6.367188 C 3.101562 6.269531 3.054688 6.230469 3.023438 6.230469 C 2.996094 6.230469 2.863281 6.1875 2.835938 6.285156 C 2.808594 6.378906 2.847656 6.695312 2.941406 6.863281 C 3.035156 7.027344 3.09375 6.894531 3.09375 6.894531 C 3.089844 7.035156 3.351562 7.476562 3.351562 7.476562 C 3.554688 7.789062 4.089844 7.976562 4.277344 8.023438 C 4.527344 8.085938 4.714844 7.96875 4.714844 7.96875 C 4.71875 7.957031 4.726562 7.925781 4.738281 7.878906 C 4.109375 7.96875 3.640625 7.324219 3.5625 7.25 C 3.484375 7.171875 3.441406 6.617188 3.421875 6.496094 C 3.402344 6.378906 3.714844 6.097656 3.714844 6.097656 C 4.082031 6.273438 4.667969 6.011719 4.910156 5.882812 L 4.867188 5.578125 "/><g clip-rule="nonzero" clip-path="url(#clip2)"><path style=" stroke:none;fill-rule:nonzero;fill:rgb(25.878906%,12.159729%,10.5896%);fill-opacity:1;" d="M 3.09375 6.316406 C 3.09375 6.316406 3.132812 6.574219 3.175781 6.597656 C 3.222656 6.621094 3.28125 6.507812 3.265625 6.4375 C 3.246094 6.363281 3.519531 6.101562 3.550781 5.792969 C 3.550781 5.792969 3.671875 5.898438 3.976562 5.921875 C 4.277344 5.945312 4.664062 5.710938 4.859375 5.675781 C 5.054688 5.636719 5.058594 5.136719 4.910156 5.027344 C 4.910156 5.027344 4.222656 4.355469 3.140625 4.710938 C 3.140625 4.710938 2.375 4.914062 2.511719 6.210938 C 2.511719 6.210938 2.660156 6.746094 2.84375 6.941406 C 2.84375 6.941406 3.054688 7.296875 3.089844 7.460938 C 3.089844 7.460938 3.152344 7.167969 3.09375 6.894531 C 3.09375 6.894531 2.984375 7.128906 2.855469 6.609375 C 2.855469 6.609375 2.789062 6.269531 2.914062 6.222656 C 2.914062 6.222656 3.042969 6.195312 3.09375 6.316406 "/></g><g clip-rule="nonzero" clip-path="url(#clip3)"><path style=" stroke:none;fill-rule:nonzero;fill:rgb(18.818665%,16.859436%,34.118652%);fill-opacity:1;" d="M 2.128906 14.78125 C 2.171875 14.804688 2.210938 14.828125 2.25 14.851562 L 2.261719 14.855469 C 2.300781 14.878906 2.339844 14.898438 2.378906 14.917969 L 2.390625 14.925781 C 2.433594 14.945312 2.472656 14.964844 2.515625 14.984375 C 2.6875 15.0625 2.84375 15.121094 2.988281 15.167969 C 2.890625 14.753906 2.621094 13.496094 2.851562 12.625 C 3.132812 11.570312 2.527344 9.386719 2.078125 8.964844 C 2.023438 8.914062 1.957031 8.898438 1.890625 8.921875 C 1.625 9.085938 1.722656 9.699219 1.859375 10.222656 C 1.953125 10.542969 2.042969 10.8125 2.082031 10.925781 C 2.292969 11.503906 2.054688 12.5 2.054688 12.5 C 1.695312 13.503906 1.980469 14.6875 1.980469 14.6875 C 2.023438 14.714844 2.0625 14.742188 2.105469 14.765625 C 2.113281 14.769531 2.121094 14.777344 2.128906 14.78125 "/></g><path style=" stroke:none;fill-rule:nonzero;fill:rgb(84.309387%,80.778503%,92.158508%);fill-opacity:1;" d="M 3.007812 7.859375 C 3.007812 7.859375 3.375 8.484375 4.179688 8.785156 C 4.179688 8.785156 4.316406 8.511719 4.351562 8.261719 C 4.351562 8.261719 4.898438 8.925781 5.011719 9.488281 C 5.011719 9.488281 5.046875 10.808594 4.882812 11.59375 C 4.882812 11.59375 3.554688 9.203125 2.746094 8.316406 L 2.882812 7.917969 L 3.007812 7.859375 "/><path style=" stroke:none;fill-rule:nonzero;fill:rgb(18.818665%,16.859436%,34.118652%);fill-opacity:1;" d="M 4.988281 10.710938 C 4.882812 10.46875 4.550781 9.238281 4.488281 9.152344 L 4.265625 9.21875 L 4.410156 10.300781 C 4.410156 10.300781 4.488281 10.734375 4.5625 11.035156 C 4.757812 11.371094 4.882812 11.59375 4.882812 11.59375 C 4.957031 11.226562 4.972656 11.121094 4.988281 10.710938 "/><path style=" stroke:none;fill-rule:nonzero;fill:rgb(18.818665%,16.859436%,34.118652%);fill-opacity:1;" d="M 4.082031 9.023438 L 4.28125 9.320312 L 4.527344 9.265625 L 4.523438 8.902344 C 4.523438 8.902344 4.363281 8.761719 4.179688 8.785156 L 4.082031 9.023438 "/><path style=" stroke:none;fill-rule:nonzero;fill:rgb(90.979004%,89.7995%,96.078491%);fill-opacity:1;" d="M 3.960938 9.320312 L 4.179688 8.785156 C 3.375 8.484375 3.007812 7.859375 3.007812 7.859375 L 2.882812 7.917969 L 2.746094 8.316406 C 3.007812 8.582031 3.960938 9.320312 3.960938 9.320312 "/><path style=" stroke:none;fill-rule:nonzero;fill:rgb(90.979004%,89.7995%,96.078491%);fill-opacity:1;" d="M 4.351562 8.261719 C 4.316406 8.511719 4.179688 8.785156 4.179688 8.785156 C 4.332031 8.808594 4.855469 9.050781 4.855469 9.050781 C 4.65625 8.628906 4.351562 8.261719 4.351562 8.261719 "/><path style=" stroke:none;fill-rule:nonzero;fill:rgb(97.24884%,61.959839%,46.269226%);fill-opacity:1;" d="M 5.910156 16.074219 C 5.832031 15.988281 5.675781 15.847656 5.613281 15.804688 C 5.550781 15.761719 5.226562 15.40625 5.226562 15.40625 L 4.816406 15.671875 C 4.839844 16.105469 4.917969 16.253906 4.917969 16.253906 C 5.144531 16.609375 5.542969 17.011719 5.652344 17.078125 C 5.761719 17.144531 5.929688 17.066406 5.929688 17.066406 C 6.023438 17.109375 6.074219 17.179688 6.132812 17.121094 C 6.195312 17.0625 5.90625 16.769531 5.84375 16.695312 C 5.777344 16.625 5.636719 16.25 5.636719 16.25 C 5.636719 16.25 5.707031 16.191406 5.792969 16.246094 C 5.878906 16.300781 6.085938 16.480469 6.144531 16.382812 C 6.144531 16.382812 5.945312 16.117188 5.910156 16.074219 "/><path style=" stroke:none;fill-rule:nonzero;fill:rgb(88.62915%,50.588989%,34.509277%);fill-opacity:1;" d="M 5.71875 17.097656 L 5.742188 17.101562 C 5.753906 17.105469 5.765625 17.101562 5.777344 17.101562 L 5.785156 17.101562 C 5.800781 17.101562 5.8125 17.097656 5.828125 17.097656 C 5.441406 16.753906 5.148438 16.179688 5.148438 16.179688 C 5.304688 16.132812 5.488281 15.917969 5.589844 15.785156 C 5.492188 15.699219 5.226562 15.40625 5.226562 15.40625 L 4.816406 15.671875 C 4.839844 16.105469 4.917969 16.253906 4.917969 16.253906 C 5.144531 16.609375 5.542969 17.011719 5.652344 17.078125 C 5.667969 17.085938 5.679688 17.089844 5.695312 17.097656 L 5.71875 17.097656 "/><g clip-rule="nonzero" clip-path="url(#clip4)"><path style=" stroke:none;fill-rule:nonzero;fill:rgb(18.818665%,16.859436%,34.118652%);fill-opacity:1;" d="M 1.890625 8.921875 C 1.890625 8.921875 1.199219 9.273438 1.429688 10.027344 C 1.585938 10.546875 2.753906 13.179688 2.753906 13.179688 C 2.753906 13.179688 4.371094 15.433594 4.628906 15.71875 C 4.628906 15.71875 5.144531 15.664062 5.335938 15.261719 C 5.335938 15.261719 3.804688 12.792969 3.695312 12.46875 C 3.695312 12.46875 3.128906 10.289062 2.671875 9.75 C 2.214844 9.214844 2 8.890625 1.890625 8.921875 "/></g><g clip-rule="nonzero" clip-path="url(#clip5)"><path style=" stroke:none;fill-rule:nonzero;fill:rgb(80.778503%,83.139038%,93.728638%);fill-opacity:1;" d="M 16.449219 6.410156 L 28.648438 13.398438 L 29.285156 12.988281 L 17.121094 6.027344 L 16.449219 6.410156 "/></g><g clip-rule="nonzero" clip-path="url(#clip6)"><path style=" stroke:none;fill-rule:nonzero;fill:rgb(57.249451%,51.759338%,79.219055%);fill-opacity:1;" d="M 28.648438 13.398438 L 27.375 22.117188 L 28.011719 21.734375 L 29.285156 12.988281 L 28.648438 13.398438 "/></g><path style=" stroke:none;fill-rule:nonzero;fill:rgb(74.899292%,74.119568%,83.529663%);fill-opacity:1;" d="M 16.449219 6.410156 L 15.175781 15.132812 L 27.375 22.117188 L 28.648438 13.398438 L 16.449219 6.410156 "/><path style=" stroke:none;fill-rule:nonzero;fill:rgb(84.309387%,80.778503%,92.158508%);fill-opacity:1;" d="M 15.175781 15.132812 L 7.472656 19.542969 L 19.671875 26.53125 L 27.375 22.117188 "/><g clip-rule="nonzero" clip-path="url(#clip7)"><path style=" stroke:none;fill-rule:nonzero;fill:rgb(57.249451%,51.759338%,79.219055%);fill-opacity:1;" d="M 7.472656 19.542969 L 7.472656 20.28125 L 19.671875 27.265625 L 28.011719 22.472656 L 28.011719 21.734375 L 19.671875 26.53125 L 7.472656 19.542969 "/></g><path style=" stroke:none;fill-rule:nonzero;fill:rgb(23.529053%,21.179199%,45.098877%);fill-opacity:1;" d="M 16.773438 6.964844 L 15.496094 14.945312 L 27.054688 21.566406 L 28.328125 13.582031 L 16.773438 6.964844 "/><path style=" stroke:none;fill-rule:nonzero;fill:rgb(29.019165%,27.839661%,57.649231%);fill-opacity:1;" d="M 17.132812 7.421875 L 15.859375 14.902344 L 26.691406 21.105469 L 27.96875 13.628906 L 17.132812 7.421875 "/><path style=" stroke:none;fill-rule:nonzero;fill:rgb(57.249451%,51.759338%,79.219055%);fill-opacity:1;" d="M 25.960938 21.9375 L 21.375 24.566406 L 10.90625 18.570312 L 15.496094 15.941406 L 25.960938 21.9375 "/><path style=" stroke:none;fill-rule:nonzero;fill:rgb(23.529053%,21.179199%,45.098877%);fill-opacity:1;" d="M 25.257812 21.871094 L 24.792969 22.148438 L 15.152344 16.609375 L 15.628906 16.332031 L 25.257812 21.871094 "/><path style=" stroke:none;fill-rule:nonzero;fill:rgb(23.529053%,21.179199%,45.098877%);fill-opacity:1;" d="M 24.371094 22.390625 L 23.902344 22.667969 L 14.265625 17.125 L 14.738281 16.851562 L 24.371094 22.390625 "/><path style=" stroke:none;fill-rule:nonzero;fill:rgb(23.529053%,21.179199%,45.098877%);fill-opacity:1;" d="M 23.632812 22.808594 L 23.164062 23.085938 L 13.527344 17.542969 L 14.003906 17.269531 L 23.632812 22.808594 "/><path style=" stroke:none;fill-rule:nonzero;fill:rgb(23.529053%,21.179199%,45.098877%);fill-opacity:1;" d="M 22.714844 23.339844 L 22.246094 23.617188 L 12.609375 18.074219 L 13.085938 17.800781 L 22.714844 23.339844 "/><path style=" stroke:none;fill-rule:nonzero;fill:rgb(23.529053%,21.179199%,45.098877%);fill-opacity:1;" d="M 21.941406 23.789062 L 21.472656 24.066406 L 11.835938 18.527344 L 12.308594 18.25 L 21.941406 23.789062 "/><path style=" stroke:none;fill-rule:nonzero;fill:rgb(57.249451%,51.759338%,79.219055%);fill-opacity:1;" d="M 16.605469 22.546875 L 15.441406 23.214844 L 12.785156 21.691406 L 13.949219 21.023438 L 16.605469 22.546875 "/><path style=" stroke:none;fill-rule:nonzero;fill:rgb(48.629761%,46.669006%,71.369934%);fill-opacity:1;" d="M 16.605469 22.546875 L 13.949219 21.023438 L 12.785156 21.691406 L 12.90625 21.761719 L 13.941406 21.160156 L 16.472656 22.621094 L 16.605469 22.546875 "/></g></svg>