<?xml version="1.0" encoding="UTF-8"?><svg xmlns="http://www.w3.org/2000/svg" xmlns:xlink="http://www.w3.org/1999/xlink" contentScriptType="text/ecmascript" width="30pt" zoomAndPan="magnify" contentStyleType="text/css" viewBox="0 0 30 31.5" height="31.5pt" preserveAspectRatio="xMidYMid meet" version="1.2"><defs><clipPath xml:id="clip1" id="clip1"><path d="M 1.34375 2.953125 L 28.363281 2.953125 L 28.363281 28.054688 L 1.34375 28.054688 Z M 1.34375 2.953125 "/></clipPath><clipPath xml:id="clip2" id="clip2"><path d="M 1.34375 3 L 28 3 L 28 24 L 1.34375 24 Z M 1.34375 3 "/></clipPath><clipPath xml:id="clip3" id="clip3"><path d="M 1.34375 21 L 28 21 L 28 24 L 1.34375 24 Z M 1.34375 21 "/></clipPath><clipPath xml:id="clip4" id="clip4"><path d="M 1.34375 3 L 28 3 L 28 6 L 1.34375 6 Z M 1.34375 3 "/></clipPath><filter x="0%" y="0%" width="100%" xmlns:xlink="http://www.w3.org/1999/xlink" xlink:type="simple" filterUnits="objectBoundingBox" xlink:actuate="onLoad" id="alpha" height="100%" xlink:show="other" xml:id="alpha"><feColorMatrix values="0 0 0 0 1 0 0 0 0 1 0 0 0 0 1 0 0 0 1 0" type="matrix" in="SourceGraphic"/></filter><clipPath xml:id="clip6" id="clip6"><path d="M 0.0703125 1 L 10 1 L 10 11 L 0.0703125 11 Z M 0.0703125 1 "/></clipPath><clipPath xml:id="clip7" id="clip7"><path d="M 10 11 L 19 11 L 19 16.789062 L 10 16.789062 Z M 10 11 "/></clipPath><clipPath xml:id="clip8" id="clip8"><path d="M 18 14 L 22 14 L 22 16.789062 L 18 16.789062 Z M 18 14 "/></clipPath><clipPath xml:id="clip9" id="clip9"><path d="M 14 6 L 23.695312 6 L 23.695312 16.789062 L 14 16.789062 Z M 14 6 "/></clipPath><clipPath xml:id="clip5" id="clip5"><rect x="0" width="24" y="0" height="17"/></clipPath></defs><g xml:id="surface1" id="surface1"><path style=" stroke:none;fill-rule:nonzero;fill:rgb(17.649841%,11.369324%,8.628845%);fill-opacity:1;" d="M 9.925781 16.308594 C 9.171875 16.308594 8.554688 16.9375 8.554688 17.710938 C 8.554688 18.484375 9.171875 19.113281 9.925781 19.113281 C 10.683594 19.113281 11.296875 18.484375 11.296875 17.710938 C 11.296875 16.9375 10.683594 16.308594 9.925781 16.308594 Z M 9.925781 18.53125 C 9.484375 18.53125 9.121094 18.164062 9.121094 17.710938 C 9.121094 17.257812 9.484375 16.890625 9.925781 16.890625 C 10.371094 16.890625 10.730469 17.257812 10.730469 17.710938 C 10.730469 18.164062 10.371094 18.53125 9.925781 18.53125 Z M 9.925781 18.53125 "/><path style=" stroke:none;fill-rule:nonzero;fill:rgb(17.649841%,11.369324%,8.628845%);fill-opacity:1;" d="M 21.390625 16.667969 L 17.363281 12.550781 L 18.742188 10.996094 C 18.871094 11.015625 19 11.027344 19.125 11.027344 C 19.824219 11.027344 20.496094 10.746094 21 10.230469 C 21.757812 9.457031 21.988281 8.304688 21.585938 7.292969 C 21.578125 7.273438 21.570312 7.257812 21.558594 7.238281 C 21.539062 7.207031 21.511719 7.179688 21.480469 7.15625 C 21.472656 7.152344 21.464844 7.148438 21.457031 7.144531 C 21.449219 7.140625 21.441406 7.136719 21.429688 7.132812 C 21.421875 7.128906 21.414062 7.125 21.402344 7.125 C 21.394531 7.121094 21.386719 7.117188 21.378906 7.113281 C 21.371094 7.113281 21.363281 7.113281 21.355469 7.113281 C 21.34375 7.109375 21.332031 7.109375 21.324219 7.109375 C 21.316406 7.109375 21.308594 7.109375 21.296875 7.113281 C 21.289062 7.113281 21.277344 7.113281 21.269531 7.113281 C 21.234375 7.121094 21.199219 7.136719 21.164062 7.15625 C 21.148438 7.167969 21.136719 7.179688 21.121094 7.195312 L 19.417969 8.933594 L 18.511719 8.007812 L 20.214844 6.269531 C 20.230469 6.253906 20.242188 6.238281 20.25 6.222656 C 20.273438 6.191406 20.285156 6.152344 20.292969 6.117188 C 20.296875 6.109375 20.296875 6.097656 20.296875 6.089844 C 20.296875 6.078125 20.296875 6.070312 20.296875 6.0625 C 20.296875 6.050781 20.296875 6.042969 20.296875 6.03125 C 20.296875 6.023438 20.292969 6.015625 20.292969 6.003906 C 20.292969 5.996094 20.289062 5.988281 20.285156 5.980469 C 20.28125 5.96875 20.28125 5.960938 20.277344 5.953125 C 20.273438 5.941406 20.269531 5.933594 20.261719 5.925781 C 20.257812 5.917969 20.257812 5.910156 20.25 5.902344 C 20.230469 5.871094 20.203125 5.84375 20.171875 5.820312 C 20.15625 5.808594 20.136719 5.800781 20.121094 5.792969 C 19.128906 5.382812 18 5.617188 17.246094 6.390625 C 16.648438 7 16.375 7.855469 16.496094 8.699219 L 14.066406 10.945312 L 10.757812 7.566406 L 10.335938 6.449219 C 10.3125 6.378906 10.257812 6.320312 10.191406 6.289062 L 8.875 5.664062 C 8.765625 5.613281 8.640625 5.636719 8.554688 5.722656 L 7.816406 6.480469 C 7.730469 6.566406 7.710938 6.695312 7.757812 6.804688 L 8.371094 8.152344 C 8.402344 8.21875 8.457031 8.273438 8.523438 8.300781 L 9.617188 8.730469 L 12.871094 12.054688 L 8.429688 16.160156 C 8.429688 16.164062 8.425781 16.164062 8.425781 16.167969 C 8.421875 16.167969 8.421875 16.167969 8.421875 16.171875 C 8.019531 16.582031 7.796875 17.128906 7.796875 17.710938 C 7.796875 18.292969 8.019531 18.839844 8.421875 19.25 C 8.835938 19.675781 9.382812 19.886719 9.925781 19.886719 C 10.472656 19.886719 11.019531 19.675781 11.433594 19.25 C 11.433594 19.25 11.4375 19.246094 11.4375 19.246094 C 11.4375 19.242188 11.441406 19.242188 11.441406 19.238281 L 14.640625 15.628906 L 18.523438 19.597656 C 18.90625 19.988281 19.414062 20.203125 19.957031 20.203125 C 20.5 20.203125 21.007812 19.988281 21.390625 19.597656 C 21.773438 19.207031 21.984375 18.683594 21.984375 18.132812 C 21.984375 17.578125 21.773438 17.058594 21.390625 16.667969 Z M 16.992188 9.023438 C 16.996094 9.019531 16.996094 9.019531 17 9.015625 C 17.003906 9.007812 17.011719 9.003906 17.015625 8.996094 C 17.023438 8.988281 17.03125 8.980469 17.035156 8.972656 C 17.039062 8.964844 17.042969 8.957031 17.046875 8.953125 C 17.050781 8.941406 17.058594 8.933594 17.0625 8.921875 C 17.066406 8.914062 17.066406 8.90625 17.070312 8.898438 C 17.074219 8.890625 17.074219 8.878906 17.078125 8.871094 C 17.078125 8.863281 17.082031 8.855469 17.082031 8.84375 C 17.082031 8.835938 17.082031 8.824219 17.085938 8.8125 C 17.085938 8.804688 17.082031 8.796875 17.082031 8.789062 C 17.082031 8.777344 17.082031 8.765625 17.078125 8.757812 C 17.078125 8.753906 17.078125 8.75 17.078125 8.75 C 16.933594 8.039062 17.144531 7.3125 17.644531 6.800781 C 18.132812 6.304688 18.816406 6.089844 19.472656 6.207031 L 17.910156 7.804688 C 17.800781 7.917969 17.800781 8.101562 17.910156 8.210938 L 19.21875 9.546875 C 19.273438 9.601562 19.34375 9.632812 19.417969 9.632812 C 19.496094 9.632812 19.566406 9.601562 19.621094 9.546875 L 21.183594 7.953125 C 21.296875 8.625 21.085938 9.324219 20.601562 9.820312 C 20.101562 10.332031 19.386719 10.546875 18.695312 10.398438 C 18.691406 10.398438 18.6875 10.398438 18.6875 10.398438 C 18.675781 10.398438 18.667969 10.398438 18.65625 10.394531 C 18.648438 10.394531 18.640625 10.394531 18.628906 10.394531 C 18.621094 10.394531 18.613281 10.394531 18.605469 10.398438 C 18.59375 10.398438 18.585938 10.398438 18.574219 10.402344 C 18.566406 10.402344 18.5625 10.40625 18.554688 10.40625 C 18.542969 10.410156 18.53125 10.414062 18.523438 10.417969 C 18.515625 10.421875 18.511719 10.425781 18.503906 10.429688 C 18.492188 10.433594 18.484375 10.441406 18.472656 10.445312 C 18.46875 10.449219 18.464844 10.457031 18.460938 10.460938 C 18.449219 10.46875 18.441406 10.476562 18.433594 10.484375 C 18.429688 10.488281 18.429688 10.488281 18.425781 10.488281 L 16.960938 12.140625 L 16.753906 11.929688 C 16.699219 11.875 16.628906 11.84375 16.554688 11.84375 C 16.480469 11.84375 16.40625 11.875 16.351562 11.929688 L 15.691406 12.605469 L 14.46875 11.355469 Z M 9.976562 8.277344 C 9.976562 8.277344 9.972656 8.277344 9.972656 8.273438 C 9.96875 8.269531 9.960938 8.265625 9.957031 8.257812 C 9.945312 8.253906 9.9375 8.242188 9.929688 8.238281 C 9.925781 8.238281 9.925781 8.234375 9.921875 8.234375 C 9.910156 8.226562 9.894531 8.21875 9.878906 8.210938 L 8.835938 7.800781 L 8.355469 6.746094 L 8.816406 6.277344 L 9.847656 6.765625 L 10.25 7.828125 C 10.25 7.832031 10.25 7.832031 10.25 7.832031 C 10.257812 7.847656 10.265625 7.863281 10.273438 7.878906 C 10.273438 7.878906 10.273438 7.878906 10.277344 7.882812 C 10.28125 7.890625 10.289062 7.902344 10.296875 7.910156 C 10.304688 7.917969 10.308594 7.921875 10.3125 7.929688 L 15.289062 13.015625 L 14.953125 13.363281 Z M 11.03125 18.84375 C 10.417969 19.464844 9.429688 19.460938 8.820312 18.839844 C 8.527344 18.539062 8.363281 18.136719 8.363281 17.710938 C 8.363281 17.285156 8.523438 16.882812 8.820312 16.582031 L 13.269531 12.464844 L 14.550781 13.773438 L 13.886719 14.449219 C 13.835938 14.503906 13.804688 14.578125 13.804688 14.652344 C 13.804688 14.730469 13.835938 14.804688 13.886719 14.859375 L 14.238281 15.21875 Z M 20.988281 19.1875 C 20.714844 19.46875 20.347656 19.625 19.957031 19.625 C 19.566406 19.625 19.199219 19.46875 18.925781 19.1875 L 14.488281 14.652344 L 16.554688 12.542969 L 20.988281 17.078125 C 21.265625 17.359375 21.417969 17.734375 21.417969 18.132812 C 21.417969 18.53125 21.265625 18.90625 20.988281 19.1875 Z M 20.988281 19.1875 "/><path style=" stroke:none;fill-rule:nonzero;fill:rgb(17.649841%,11.369324%,8.628845%);fill-opacity:1;" d="M 19.863281 18.792969 C 19.808594 18.851562 19.738281 18.878906 19.664062 18.878906 C 19.59375 18.878906 19.519531 18.851562 19.464844 18.792969 L 15.554688 14.796875 C 15.445312 14.683594 15.445312 14.5 15.554688 14.386719 C 15.664062 14.273438 15.84375 14.273438 15.957031 14.386719 L 19.863281 18.382812 C 19.976562 18.496094 19.976562 18.679688 19.863281 18.792969 Z M 19.863281 18.792969 "/><path style=" stroke:none;fill-rule:nonzero;fill:rgb(17.649841%,11.369324%,8.628845%);fill-opacity:1;" d="M 20.605469 18.039062 C 20.550781 18.09375 20.476562 18.125 20.402344 18.125 C 20.332031 18.125 20.257812 18.09375 20.203125 18.039062 L 16.292969 14.042969 C 16.183594 13.929688 16.183594 13.746094 16.292969 13.632812 C 16.40625 13.519531 16.585938 13.519531 16.695312 13.632812 L 20.605469 17.628906 C 20.714844 17.742188 20.714844 17.925781 20.605469 18.039062 Z M 20.605469 18.039062 "/><g clip-rule="nonzero" clip-path="url(#clip1)"><path style=" stroke:none;fill-rule:nonzero;fill:rgb(17.649841%,11.369324%,8.628845%);fill-opacity:1;" d="M 26.753906 2.953125 L 2.960938 2.953125 C 2.085938 2.953125 1.375 3.679688 1.375 4.570312 L 1.375 22.390625 C 1.375 23.285156 2.085938 24.011719 2.960938 24.011719 L 12.160156 24.011719 L 11.460938 27.472656 L 9.410156 27.472656 C 9.253906 27.472656 9.128906 27.601562 9.128906 27.761719 C 9.128906 27.921875 9.253906 28.050781 9.410156 28.050781 L 20.304688 28.050781 C 20.460938 28.050781 20.589844 27.921875 20.589844 27.761719 C 20.589844 27.601562 20.460938 27.472656 20.304688 27.472656 L 18.253906 27.472656 L 17.554688 24.011719 L 26.753906 24.011719 C 27.628906 24.011719 28.339844 23.285156 28.339844 22.390625 L 28.339844 4.570312 C 28.339844 3.679688 27.628906 2.953125 26.753906 2.953125 Z M 17.675781 27.472656 L 12.042969 27.472656 L 12.738281 24.011719 L 16.976562 24.011719 Z M 27.773438 22.390625 C 27.773438 22.964844 27.316406 23.433594 26.753906 23.433594 L 2.960938 23.433594 C 2.398438 23.433594 1.941406 22.964844 1.941406 22.390625 L 1.941406 4.570312 C 1.941406 4 2.398438 3.53125 2.960938 3.53125 L 26.753906 3.53125 C 27.316406 3.53125 27.773438 4 27.773438 4.570312 Z M 27.773438 22.390625 "/></g><path style=" stroke:none;fill-rule:nonzero;fill:rgb(88.238525%,88.238525%,89.7995%);fill-opacity:1;" d="M 17.675781 27.472656 L 12.042969 27.472656 L 12.738281 24.011719 L 16.976562 24.011719 Z M 17.675781 27.472656 "/><path style=" stroke:none;fill-rule:nonzero;fill:rgb(0%,0%,0%);fill-opacity:0.2;" d="M 17.675781 27.472656 L 17.363281 27.472656 L 16.976562 25.546875 L 12.738281 25.546875 L 12.351562 27.472656 L 12.042969 27.472656 L 12.738281 24.011719 L 16.976562 24.011719 Z M 17.675781 27.472656 "/><g clip-rule="nonzero" clip-path="url(#clip2)"><path style=" stroke:none;fill-rule:nonzero;fill:rgb(88.238525%,88.238525%,89.7995%);fill-opacity:1;" d="M 26.753906 3.53125 L 2.960938 3.53125 C 2.398438 3.53125 1.941406 4 1.941406 4.570312 L 1.941406 22.390625 C 1.941406 22.964844 2.398438 23.433594 2.960938 23.433594 L 26.753906 23.433594 C 27.316406 23.433594 27.773438 22.964844 27.773438 22.390625 L 27.773438 4.570312 C 27.773438 4 27.316406 3.53125 26.753906 3.53125 Z M 16.5 22.625 L 13.214844 22.625 C 13.058594 22.625 12.933594 22.496094 12.933594 22.335938 C 12.933594 22.175781 13.058594 22.046875 13.214844 22.046875 L 16.5 22.046875 C 16.65625 22.046875 16.785156 22.175781 16.785156 22.335938 C 16.785156 22.496094 16.65625 22.625 16.5 22.625 Z M 27.007812 21.011719 C 27.007812 21.167969 26.882812 21.300781 26.726562 21.300781 L 2.992188 21.300781 C 2.835938 21.300781 2.707031 21.167969 2.707031 21.011719 L 2.707031 4.714844 C 2.707031 4.554688 2.835938 4.421875 2.992188 4.421875 L 26.726562 4.421875 C 26.882812 4.421875 27.007812 4.554688 27.007812 4.714844 Z M 27.007812 21.011719 "/></g><g clip-rule="nonzero" clip-path="url(#clip3)"><path style=" stroke:none;fill-rule:nonzero;fill:rgb(0%,0%,0%);fill-opacity:0.2;" d="M 26.753906 22.71875 L 2.960938 22.71875 C 2.398438 22.71875 1.941406 22.25 1.941406 21.675781 L 1.941406 22.390625 C 1.941406 22.964844 2.398438 23.433594 2.960938 23.433594 L 26.753906 23.433594 C 27.316406 23.433594 27.773438 22.964844 27.773438 22.390625 L 27.773438 21.675781 C 27.773438 22.25 27.316406 22.71875 26.753906 22.71875 Z M 26.753906 22.71875 "/></g><g clip-rule="nonzero" clip-path="url(#clip4)"><path style=" stroke:none;fill-rule:nonzero;fill:rgb(0%,0%,0%);fill-opacity:0.2;" d="M 26.753906 3.53125 L 2.960938 3.53125 C 2.398438 3.53125 1.941406 4 1.941406 4.570312 L 1.941406 5.003906 C 1.941406 4.429688 2.398438 3.960938 2.960938 3.960938 L 26.753906 3.960938 C 27.316406 3.960938 27.773438 4.429688 27.773438 5.003906 L 27.773438 4.570312 C 27.773438 4 27.316406 3.53125 26.753906 3.53125 Z M 26.753906 3.53125 "/></g><path style=" stroke:none;fill-rule:nonzero;fill:rgb(17.649841%,11.369324%,8.628845%);fill-opacity:1;" d="M 26.726562 4.421875 L 2.992188 4.421875 C 2.835938 4.421875 2.707031 4.554688 2.707031 4.714844 L 2.707031 21.011719 C 2.707031 21.167969 2.835938 21.300781 2.992188 21.300781 L 26.726562 21.300781 C 26.882812 21.300781 27.007812 21.167969 27.007812 21.011719 L 27.007812 4.714844 C 27.007812 4.554688 26.882812 4.421875 26.726562 4.421875 Z M 26.441406 20.71875 L 3.273438 20.71875 L 3.273438 5.003906 L 26.441406 5.003906 Z M 26.441406 20.71875 "/><path style=" stroke:none;fill-rule:nonzero;fill:rgb(20.779419%,58.039856%,74.899292%);fill-opacity:1;" d="M 9.617188 8.730469 L 9.152344 8.546875 L 12.71875 12.191406 L 12.871094 12.054688 Z M 9.617188 8.730469 L 9.152344 8.546875 L 12.71875 12.191406 L 12.871094 12.054688 Z M 3.273438 5.003906 L 3.273438 20.71875 L 26.441406 20.71875 L 26.441406 5.003906 Z M 18.742188 10.996094 L 17.414062 12.496094 L 17.363281 12.550781 L 21.390625 16.667969 C 21.773438 17.058594 21.984375 17.578125 21.984375 18.132812 L 21.984375 18.15625 C 21.976562 18.625 21.820312 19.074219 21.53125 19.433594 C 21.488281 19.492188 21.441406 19.542969 21.390625 19.597656 C 21.136719 19.855469 20.824219 20.039062 20.488281 20.132812 C 20.316406 20.179688 20.136719 20.203125 19.957031 20.203125 C 19.414062 20.203125 18.90625 19.988281 18.523438 19.597656 L 14.640625 15.628906 L 13.179688 17.277344 L 11.441406 19.238281 C 11.441406 19.242188 11.4375 19.242188 11.4375 19.246094 C 11.4375 19.246094 11.433594 19.25 11.433594 19.25 C 11.019531 19.675781 10.472656 19.886719 9.925781 19.886719 C 9.382812 19.886719 8.835938 19.675781 8.421875 19.25 C 8.019531 18.839844 7.796875 18.292969 7.796875 17.710938 C 7.796875 17.128906 8.019531 16.582031 8.421875 16.171875 C 8.421875 16.167969 8.421875 16.167969 8.425781 16.167969 C 8.425781 16.164062 8.429688 16.164062 8.429688 16.160156 L 10.347656 14.386719 L 12.71875 12.191406 L 12.871094 12.054688 L 9.617188 8.730469 L 9.152344 8.546875 L 8.523438 8.300781 C 8.457031 8.273438 8.402344 8.21875 8.371094 8.152344 L 8.027344 7.398438 L 7.757812 6.804688 C 7.710938 6.695312 7.730469 6.566406 7.816406 6.480469 L 8.335938 5.949219 L 8.554688 5.722656 C 8.640625 5.636719 8.765625 5.613281 8.875 5.664062 L 10.191406 6.289062 C 10.257812 6.320312 10.3125 6.378906 10.335938 6.449219 L 10.757812 7.566406 L 14.066406 10.945312 L 14.519531 10.527344 L 15.027344 10.058594 L 16.496094 8.699219 C 16.492188 8.691406 16.492188 8.679688 16.492188 8.671875 C 16.378906 7.835938 16.65625 6.992188 17.246094 6.390625 C 18 5.617188 19.128906 5.382812 20.121094 5.792969 C 20.136719 5.800781 20.15625 5.808594 20.171875 5.820312 C 20.203125 5.84375 20.230469 5.871094 20.25 5.902344 C 20.257812 5.910156 20.257812 5.917969 20.261719 5.925781 C 20.269531 5.933594 20.273438 5.941406 20.277344 5.953125 C 20.28125 5.960938 20.28125 5.96875 20.285156 5.980469 C 20.289062 5.988281 20.292969 5.996094 20.292969 6.003906 C 20.292969 6.015625 20.296875 6.023438 20.296875 6.03125 C 20.296875 6.042969 20.296875 6.050781 20.296875 6.0625 C 20.296875 6.070312 20.296875 6.078125 20.296875 6.089844 C 20.296875 6.097656 20.296875 6.109375 20.292969 6.117188 C 20.285156 6.152344 20.273438 6.191406 20.25 6.222656 C 20.242188 6.238281 20.230469 6.253906 20.214844 6.269531 L 18.511719 8.007812 L 19.417969 8.933594 L 21.121094 7.195312 C 21.136719 7.179688 21.148438 7.167969 21.164062 7.15625 C 21.199219 7.136719 21.234375 7.121094 21.269531 7.113281 C 21.277344 7.113281 21.289062 7.113281 21.296875 7.113281 C 21.308594 7.109375 21.316406 7.109375 21.324219 7.109375 C 21.332031 7.109375 21.34375 7.109375 21.355469 7.113281 C 21.363281 7.113281 21.371094 7.113281 21.378906 7.113281 C 21.386719 7.117188 21.394531 7.121094 21.402344 7.125 C 21.414062 7.125 21.421875 7.128906 21.429688 7.132812 C 21.441406 7.136719 21.449219 7.140625 21.457031 7.144531 C 21.464844 7.148438 21.472656 7.152344 21.480469 7.15625 C 21.511719 7.179688 21.539062 7.207031 21.558594 7.238281 C 21.570312 7.257812 21.578125 7.273438 21.585938 7.292969 C 21.988281 8.304688 21.757812 9.457031 21 10.230469 C 20.496094 10.746094 19.824219 11.027344 19.125 11.027344 C 19.007812 11.027344 18.890625 11.015625 18.769531 11 C 18.761719 11 18.75 10.996094 18.742188 10.996094 Z M 9.617188 8.730469 L 9.152344 8.546875 L 12.71875 12.191406 L 12.871094 12.054688 Z M 9.617188 8.730469 L 9.152344 8.546875 L 12.71875 12.191406 L 12.871094 12.054688 Z M 9.617188 8.730469 "/><path style=" stroke:none;fill-rule:nonzero;fill:rgb(0%,0%,0%);fill-opacity:0.2;" d="M 26.214844 5.234375 L 26.214844 20.488281 L 3.5 20.488281 L 3.5 5.234375 L 26.214844 5.234375 M 16.253906 8.609375 L 14.074219 10.625 L 10.953125 7.4375 L 10.550781 6.363281 C 10.5 6.238281 10.410156 6.136719 10.289062 6.078125 L 8.972656 5.457031 C 8.902344 5.421875 8.832031 5.40625 8.753906 5.40625 C 8.621094 5.40625 8.492188 5.460938 8.394531 5.558594 L 7.65625 6.316406 C 7.503906 6.46875 7.464844 6.707031 7.554688 6.902344 L 8.164062 8.25 C 8.222656 8.375 8.320312 8.46875 8.445312 8.515625 L 9.492188 8.929688 L 12.542969 12.046875 L 8.28125 15.984375 C 8.277344 15.988281 8.273438 15.992188 8.269531 16 C 8.265625 16 8.261719 16.003906 8.261719 16.007812 C 7.816406 16.460938 7.570312 17.066406 7.570312 17.710938 C 7.570312 18.355469 7.8125 18.957031 8.261719 19.414062 C 8.703125 19.867188 9.296875 20.117188 9.925781 20.117188 C 10.558594 20.117188 11.148438 19.867188 11.59375 19.414062 C 11.59375 19.414062 11.597656 19.410156 11.597656 19.410156 C 11.601562 19.40625 11.601562 19.40625 11.605469 19.402344 L 11.613281 19.394531 L 14.648438 15.964844 L 18.363281 19.761719 C 18.789062 20.195312 19.355469 20.433594 19.957031 20.433594 C 20.558594 20.433594 21.125 20.195312 21.550781 19.761719 C 21.976562 19.324219 22.210938 18.746094 22.210938 18.132812 C 22.210938 17.515625 21.976562 16.9375 21.550781 16.503906 L 17.675781 12.542969 L 18.832031 11.242188 C 18.929688 11.25 19.03125 11.257812 19.125 11.257812 C 19.894531 11.257812 20.617188 10.949219 21.160156 10.394531 C 21.980469 9.554688 22.230469 8.304688 21.796875 7.207031 C 21.785156 7.171875 21.769531 7.140625 21.75 7.113281 C 21.710938 7.054688 21.664062 7.003906 21.605469 6.964844 L 21.601562 6.960938 C 21.585938 6.953125 21.570312 6.945312 21.5625 6.941406 C 21.554688 6.933594 21.539062 6.925781 21.519531 6.917969 C 21.5 6.910156 21.484375 6.90625 21.472656 6.902344 C 21.460938 6.898438 21.449219 6.894531 21.4375 6.890625 L 21.429688 6.890625 L 21.421875 6.886719 C 21.40625 6.882812 21.390625 6.882812 21.382812 6.882812 L 21.375 6.882812 C 21.363281 6.878906 21.34375 6.878906 21.324219 6.878906 C 21.304688 6.878906 21.292969 6.878906 21.28125 6.878906 L 21.273438 6.882812 L 21.269531 6.882812 C 21.261719 6.882812 21.246094 6.882812 21.226562 6.886719 C 21.160156 6.898438 21.097656 6.925781 21.042969 6.960938 L 21.039062 6.964844 C 21.011719 6.984375 20.988281 7.003906 20.964844 7.027344 L 20.960938 7.027344 L 20.960938 7.03125 L 19.417969 8.605469 L 18.835938 8.007812 L 20.375 6.433594 C 20.398438 6.410156 20.421875 6.382812 20.441406 6.351562 C 20.476562 6.296875 20.503906 6.234375 20.515625 6.164062 C 20.519531 6.140625 20.523438 6.125 20.523438 6.109375 C 20.523438 6.097656 20.523438 6.082031 20.523438 6.0625 C 20.523438 6.039062 20.523438 6.019531 20.523438 6.011719 L 20.519531 6.007812 C 20.519531 5.996094 20.519531 5.980469 20.515625 5.960938 C 20.511719 5.945312 20.507812 5.929688 20.503906 5.917969 L 20.503906 5.914062 L 20.5 5.910156 L 20.5 5.90625 C 20.496094 5.894531 20.492188 5.882812 20.488281 5.867188 L 20.484375 5.863281 L 20.484375 5.859375 C 20.476562 5.84375 20.46875 5.828125 20.464844 5.820312 L 20.464844 5.816406 L 20.460938 5.808594 C 20.457031 5.800781 20.449219 5.785156 20.4375 5.769531 C 20.402344 5.714844 20.355469 5.667969 20.300781 5.628906 L 20.296875 5.628906 C 20.269531 5.609375 20.242188 5.59375 20.207031 5.582031 L 20.207031 5.578125 C 19.859375 5.4375 19.496094 5.363281 19.121094 5.363281 C 18.351562 5.363281 17.628906 5.667969 17.085938 6.226562 C 16.472656 6.851562 16.167969 7.734375 16.253906 8.609375 M 26.441406 5.003906 L 3.273438 5.003906 L 3.273438 20.71875 L 26.441406 20.71875 Z M 14.066406 10.945312 L 16.496094 8.699219 C 16.375 7.855469 16.648438 7 17.246094 6.390625 C 17.753906 5.871094 18.429688 5.59375 19.121094 5.59375 C 19.457031 5.59375 19.796875 5.660156 20.121094 5.792969 C 20.136719 5.800781 20.15625 5.808594 20.171875 5.820312 C 20.203125 5.84375 20.230469 5.871094 20.25 5.902344 C 20.257812 5.910156 20.257812 5.917969 20.261719 5.925781 C 20.269531 5.933594 20.273438 5.941406 20.277344 5.953125 C 20.28125 5.960938 20.28125 5.96875 20.285156 5.980469 C 20.289062 5.988281 20.292969 5.996094 20.292969 6.003906 C 20.292969 6.015625 20.296875 6.023438 20.296875 6.03125 C 20.296875 6.042969 20.296875 6.050781 20.296875 6.0625 C 20.296875 6.070312 20.296875 6.078125 20.296875 6.089844 C 20.296875 6.097656 20.296875 6.109375 20.292969 6.117188 C 20.285156 6.152344 20.273438 6.191406 20.25 6.222656 C 20.242188 6.238281 20.230469 6.253906 20.214844 6.269531 L 18.511719 8.007812 L 19.417969 8.933594 L 21.121094 7.195312 C 21.136719 7.179688 21.148438 7.167969 21.164062 7.15625 C 21.199219 7.136719 21.234375 7.121094 21.269531 7.113281 C 21.277344 7.113281 21.289062 7.113281 21.296875 7.113281 C 21.308594 7.109375 21.316406 7.109375 21.324219 7.109375 C 21.332031 7.109375 21.34375 7.109375 21.355469 7.113281 C 21.363281 7.113281 21.371094 7.113281 21.378906 7.113281 C 21.386719 7.117188 21.394531 7.121094 21.402344 7.125 C 21.414062 7.125 21.421875 7.128906 21.429688 7.132812 C 21.441406 7.136719 21.449219 7.140625 21.457031 7.144531 C 21.464844 7.148438 21.472656 7.152344 21.480469 7.15625 C 21.511719 7.179688 21.539062 7.207031 21.558594 7.238281 C 21.570312 7.257812 21.578125 7.273438 21.585938 7.292969 C 21.988281 8.304688 21.757812 9.457031 21 10.230469 C 20.496094 10.746094 19.824219 11.027344 19.125 11.027344 C 19 11.027344 18.871094 11.015625 18.742188 10.996094 L 17.363281 12.550781 L 21.390625 16.667969 C 21.773438 17.058594 21.984375 17.578125 21.984375 18.132812 C 21.984375 18.683594 21.773438 19.207031 21.390625 19.597656 C 21.007812 19.988281 20.5 20.203125 19.957031 20.203125 C 19.414062 20.203125 18.90625 19.988281 18.523438 19.597656 L 14.640625 15.628906 L 11.441406 19.238281 C 11.441406 19.242188 11.4375 19.242188 11.4375 19.246094 C 11.4375 19.246094 11.433594 19.25 11.433594 19.25 C 11.019531 19.675781 10.472656 19.886719 9.925781 19.886719 C 9.382812 19.886719 8.835938 19.675781 8.421875 19.25 C 8.019531 18.839844 7.796875 18.292969 7.796875 17.710938 C 7.796875 17.128906 8.019531 16.582031 8.421875 16.171875 C 8.421875 16.167969 8.421875 16.167969 8.425781 16.167969 C 8.425781 16.164062 8.429688 16.164062 8.429688 16.160156 L 12.871094 12.054688 L 9.617188 8.730469 L 8.523438 8.300781 C 8.457031 8.273438 8.402344 8.21875 8.371094 8.152344 L 7.757812 6.804688 C 7.710938 6.695312 7.730469 6.566406 7.816406 6.480469 L 8.554688 5.722656 C 8.609375 5.667969 8.683594 5.636719 8.753906 5.636719 C 8.796875 5.636719 8.835938 5.648438 8.875 5.664062 L 10.191406 6.289062 C 10.257812 6.320312 10.3125 6.378906 10.335938 6.449219 L 10.757812 7.566406 Z M 14.066406 10.945312 "/><path style=" stroke:none;fill-rule:nonzero;fill:rgb(88.238525%,88.238525%,89.7995%);fill-opacity:1;" d="M 15.289062 13.015625 L 14.953125 13.363281 L 9.976562 8.277344 C 9.976562 8.277344 9.972656 8.277344 9.972656 8.273438 C 9.96875 8.269531 9.960938 8.265625 9.957031 8.257812 C 9.945312 8.253906 9.9375 8.242188 9.929688 8.238281 C 9.925781 8.238281 9.925781 8.234375 9.921875 8.234375 C 9.910156 8.226562 9.894531 8.21875 9.878906 8.210938 L 8.835938 7.800781 L 8.355469 6.746094 L 8.816406 6.277344 L 9.847656 6.765625 L 10.25 7.828125 C 10.25 7.832031 10.25 7.832031 10.25 7.832031 C 10.257812 7.847656 10.265625 7.863281 10.273438 7.878906 C 10.273438 7.878906 10.273438 7.878906 10.277344 7.882812 C 10.28125 7.890625 10.289062 7.902344 10.296875 7.910156 C 10.304688 7.917969 10.308594 7.921875 10.3125 7.929688 Z M 15.289062 13.015625 "/><path style=" stroke:none;fill-rule:nonzero;fill:rgb(88.238525%,88.238525%,89.7995%);fill-opacity:1;" d="M 20.601562 9.820312 C 20.101562 10.332031 19.386719 10.546875 18.695312 10.398438 C 18.691406 10.398438 18.6875 10.398438 18.6875 10.398438 C 18.675781 10.398438 18.667969 10.398438 18.65625 10.394531 C 18.648438 10.394531 18.640625 10.394531 18.628906 10.394531 C 18.621094 10.394531 18.613281 10.394531 18.605469 10.398438 C 18.59375 10.398438 18.585938 10.398438 18.574219 10.402344 C 18.566406 10.402344 18.5625 10.40625 18.554688 10.40625 C 18.542969 10.410156 18.53125 10.414062 18.523438 10.417969 C 18.515625 10.421875 18.511719 10.425781 18.503906 10.429688 C 18.492188 10.433594 18.484375 10.441406 18.472656 10.445312 C 18.46875 10.449219 18.464844 10.457031 18.460938 10.460938 C 18.449219 10.46875 18.441406 10.476562 18.433594 10.484375 C 18.429688 10.488281 18.429688 10.488281 18.425781 10.488281 L 16.960938 12.140625 L 16.753906 11.929688 C 16.699219 11.875 16.628906 11.84375 16.554688 11.84375 C 16.480469 11.84375 16.40625 11.875 16.351562 11.929688 L 15.691406 12.605469 L 14.46875 11.355469 L 16.992188 9.023438 C 16.996094 9.019531 16.996094 9.019531 17 9.015625 C 17.003906 9.007812 17.011719 9.003906 17.015625 8.996094 C 17.023438 8.988281 17.03125 8.980469 17.035156 8.972656 C 17.039062 8.964844 17.042969 8.957031 17.046875 8.953125 C 17.050781 8.941406 17.058594 8.933594 17.0625 8.921875 C 17.066406 8.914062 17.066406 8.90625 17.070312 8.898438 C 17.074219 8.890625 17.074219 8.878906 17.078125 8.871094 C 17.078125 8.863281 17.082031 8.855469 17.082031 8.847656 C 17.082031 8.835938 17.082031 8.824219 17.085938 8.8125 C 17.085938 8.804688 17.082031 8.796875 17.082031 8.789062 C 17.082031 8.777344 17.082031 8.765625 17.078125 8.757812 C 17.078125 8.753906 17.078125 8.75 17.078125 8.75 C 16.933594 8.039062 17.144531 7.3125 17.644531 6.800781 C 18.132812 6.304688 18.816406 6.089844 19.472656 6.207031 L 17.910156 7.804688 C 17.800781 7.917969 17.800781 8.101562 17.910156 8.210938 L 19.21875 9.546875 C 19.273438 9.601562 19.34375 9.632812 19.417969 9.632812 C 19.496094 9.632812 19.566406 9.601562 19.621094 9.546875 L 21.183594 7.953125 C 21.296875 8.625 21.085938 9.324219 20.601562 9.820312 Z M 20.601562 9.820312 "/><path style=" stroke:none;fill-rule:nonzero;fill:rgb(0%,0%,0%);fill-opacity:0.2;" d="M 16.351562 11.929688 L 15.691406 12.605469 L 14.46875 11.355469 L 14.882812 10.976562 L 16.085938 12.203125 Z M 16.351562 11.929688 "/><path style=" stroke:none;fill-rule:nonzero;fill:rgb(0%,0%,0%);fill-opacity:0.2;" d="M 17.335938 11.71875 L 16.960938 12.140625 L 16.753906 11.929688 C 16.699219 11.875 16.628906 11.84375 16.554688 11.84375 C 16.480469 11.84375 16.40625 11.875 16.351562 11.929688 L 16.746094 11.527344 C 16.800781 11.472656 16.871094 11.441406 16.945312 11.441406 C 17.023438 11.441406 17.09375 11.472656 17.148438 11.527344 Z M 17.335938 11.71875 "/><path style=" stroke:none;fill-rule:nonzero;fill:rgb(97.648621%,75.689697%,22.349548%);fill-opacity:1;" d="M 20.988281 17.078125 L 16.554688 12.542969 L 14.488281 14.652344 L 18.925781 19.1875 C 19.199219 19.46875 19.566406 19.625 19.957031 19.625 C 20.347656 19.625 20.714844 19.46875 20.988281 19.1875 C 21.265625 18.90625 21.417969 18.53125 21.417969 18.132812 C 21.417969 17.734375 21.265625 17.359375 20.988281 17.078125 Z M 19.863281 18.792969 C 19.808594 18.851562 19.738281 18.878906 19.664062 18.878906 C 19.59375 18.878906 19.519531 18.851562 19.464844 18.792969 L 15.554688 14.796875 C 15.445312 14.683594 15.445312 14.5 15.554688 14.386719 C 15.664062 14.273438 15.84375 14.273438 15.957031 14.386719 L 19.863281 18.382812 C 19.976562 18.496094 19.976562 18.679688 19.863281 18.792969 Z M 20.605469 18.039062 C 20.550781 18.09375 20.476562 18.125 20.402344 18.125 C 20.332031 18.125 20.257812 18.09375 20.203125 18.039062 L 16.292969 14.042969 C 16.183594 13.929688 16.183594 13.746094 16.292969 13.632812 C 16.40625 13.519531 16.585938 13.519531 16.695312 13.632812 L 20.605469 17.628906 C 20.714844 17.742188 20.714844 17.925781 20.605469 18.039062 Z M 20.605469 18.039062 "/><path style=" stroke:none;fill-rule:nonzero;fill:rgb(88.238525%,88.238525%,89.7995%);fill-opacity:1;" d="M 13.804688 14.652344 C 13.804688 14.578125 13.835938 14.503906 13.886719 14.449219 L 14.550781 13.773438 L 13.269531 12.464844 L 8.820312 16.582031 C 8.523438 16.882812 8.363281 17.285156 8.363281 17.710938 C 8.363281 18.136719 8.527344 18.539062 8.820312 18.839844 C 9.429688 19.460938 10.417969 19.464844 11.03125 18.84375 L 14.238281 15.21875 L 13.886719 14.859375 C 13.835938 14.804688 13.804688 14.730469 13.804688 14.652344 Z M 9.925781 19.113281 C 9.171875 19.113281 8.554688 18.484375 8.554688 17.710938 C 8.554688 16.9375 9.171875 16.308594 9.925781 16.308594 C 10.683594 16.308594 11.296875 16.9375 11.296875 17.710938 C 11.296875 18.484375 10.683594 19.113281 9.925781 19.113281 Z M 9.925781 19.113281 "/><path style=" stroke:none;fill-rule:nonzero;fill:rgb(0%,0%,0%);fill-opacity:0.2;" d="M 13.886719 14.859375 C 13.835938 14.804688 13.804688 14.730469 13.804688 14.652344 C 13.804688 14.578125 13.835938 14.503906 13.886719 14.449219 L 13.488281 14.855469 C 13.4375 14.910156 13.40625 14.984375 13.40625 15.0625 C 13.40625 15.136719 13.4375 15.210938 13.488281 15.265625 L 13.839844 15.625 L 10.859375 18.992188 C 10.917969 18.949219 10.976562 18.898438 11.03125 18.84375 L 14.238281 15.21875 Z M 13.269531 12.464844 L 8.820312 16.582031 C 8.765625 16.640625 8.714844 16.699219 8.667969 16.761719 L 12.871094 12.871094 L 14.152344 14.179688 L 14.550781 13.773438 Z M 13.269531 12.464844 "/><path style=" stroke:none;fill-rule:nonzero;fill:rgb(20.779419%,58.039856%,74.899292%);fill-opacity:1;" d="M 10.730469 17.710938 C 10.730469 18.164062 10.371094 18.53125 9.925781 18.53125 C 9.484375 18.53125 9.121094 18.164062 9.121094 17.710938 C 9.121094 17.257812 9.484375 16.890625 9.925781 16.890625 C 10.371094 16.890625 10.730469 17.257812 10.730469 17.710938 Z M 10.730469 17.710938 "/><path style=" stroke:none;fill-rule:nonzero;fill:rgb(17.649841%,11.369324%,8.628845%);fill-opacity:1;" d="M 16.785156 22.335938 C 16.785156 22.496094 16.65625 22.625 16.5 22.625 L 13.214844 22.625 C 13.058594 22.625 12.933594 22.496094 12.933594 22.335938 C 12.933594 22.175781 13.058594 22.046875 13.214844 22.046875 L 16.5 22.046875 C 16.65625 22.046875 16.785156 22.175781 16.785156 22.335938 Z M 16.785156 22.335938 "/><g mask="url(#mask0)" transform="matrix(1,0,0,1,3,4)"><g xml:id="surface5" id="surface5" clip-path="url(#clip5)"><g clip-rule="nonzero" clip-path="url(#clip6)"><path style=" stroke:none;fill-rule:nonzero;fill:rgb(100%,100%,100%);fill-opacity:1;" d="M 9.71875 8.191406 L 7.347656 10.386719 L 0.273438 3.15625 L 0.273438 1.003906 L 2.683594 1.003906 L 5.027344 3.398438 L 5.371094 4.152344 C 5.402344 4.21875 5.457031 4.273438 5.523438 4.300781 L 6.152344 4.546875 Z M 9.71875 8.191406 "/></g><g clip-rule="nonzero" clip-path="url(#clip7)"><path style=" stroke:none;fill-rule:nonzero;fill:rgb(100%,100%,100%);fill-opacity:1;" d="M 18.0625 16.71875 L 13.546875 16.71875 L 10.179688 13.277344 L 11.640625 11.628906 L 15.523438 15.597656 C 15.90625 15.988281 16.414062 16.203125 16.957031 16.203125 C 17.136719 16.203125 17.316406 16.179688 17.488281 16.132812 Z M 18.0625 16.71875 "/></g><path style=" stroke:none;fill-rule:nonzero;fill:rgb(100%,100%,100%);fill-opacity:1;" d="M 6.117188 1.003906 L 11.519531 6.527344 L 11.066406 6.945312 L 7.757812 3.566406 L 7.335938 2.449219 C 7.3125 2.378906 7.257812 2.320312 7.191406 2.289062 L 5.875 1.664062 C 5.765625 1.613281 5.640625 1.636719 5.554688 1.722656 L 5.335938 1.949219 L 4.410156 1.003906 Z M 6.117188 1.003906 "/><g clip-rule="nonzero" clip-path="url(#clip8)"><path style=" stroke:none;fill-rule:nonzero;fill:rgb(100%,100%,100%);fill-opacity:1;" d="M 21.492188 16.71875 L 19.789062 16.71875 L 18.53125 15.433594 C 18.820312 15.074219 18.976562 14.625 18.984375 14.15625 Z M 21.492188 16.71875 "/></g><path style=" stroke:none;fill-rule:nonzero;fill:rgb(100%,100%,100%);fill-opacity:1;" d="M 13.492188 4.671875 C 13.492188 4.679688 13.492188 4.691406 13.496094 4.699219 L 12.027344 6.058594 L 7.078125 1.003906 L 9.902344 1.003906 Z M 13.492188 4.671875 "/><g clip-rule="nonzero" clip-path="url(#clip9)"><path style=" stroke:none;fill-rule:nonzero;fill:rgb(100%,100%,100%);fill-opacity:1;" d="M 23.441406 14.839844 L 23.441406 16.71875 L 22.457031 16.71875 L 14.414062 8.496094 L 15.742188 6.996094 C 15.75 6.996094 15.761719 7 15.769531 7 Z M 23.441406 14.839844 "/></g></g><mask xml:id="mask0" id="mask0"><g filter="url(#alpha)"><rect x="0" width="30" y="0" height="31.5" style="fill:rgb(0%,0%,0%);fill-opacity:0.4;stroke:none;"/></g></mask></g></g></svg>