<svg width="375" height="71" viewBox="0 0 375 71" fill="none" xmlns="http://www.w3.org/2000/svg">
<path fill-rule="evenodd" clip-rule="evenodd" d="M0 0.679276L15.7374 10.993C31.4748 21.6192 62.5 42.2466 93.9748 46.3096C125 50.0601 156.475 37.2461 187.5 25.3697C218.975 13.8058 250 3.17957 281.475 0.679276C312.5 -1.82102 343.975 3.17957 359.263 5.9924L375 8.49269V71H359.263C343.975 71 312.5 71 281.475 71C250 71 218.975 71 187.5 71C156.475 71 125 71 93.9748 71C62.5 71 31.4748 71 15.7374 71H0V0.679276Z" fill="#011627"/>
</svg>
