<svg width="370" height="213" viewBox="0 0 370 213" fill="none" xmlns="http://www.w3.org/2000/svg">
<g clip-path="url(#clip0)">
<path d="M185 213C287.173 213 370 208.235 370 202.357C370 196.48 287.173 191.715 185 191.715C82.8273 191.715 0 196.48 0 202.357C0 208.235 82.8273 213 185 213Z" fill="#F2F2F2"/>
<path d="M336.842 0H58.9197V8.84408H336.842V0Z" fill="#F2F2F2"/>
<path d="M66.3568 6.58058C67.6206 6.58058 68.6451 5.5558 68.6451 4.29168C68.6451 3.02755 67.6206 2.00278 66.3568 2.00278C65.0929 2.00278 64.0684 3.02755 64.0684 4.29168C64.0684 5.5558 65.0929 6.58058 66.3568 6.58058Z" fill="#011627"/>
<path d="M73.7939 6.58058C75.0577 6.58058 76.0822 5.5558 76.0822 4.29168C76.0822 3.02755 75.0577 2.00278 73.7939 2.00278C72.5301 2.00278 71.5056 3.02755 71.5056 4.29168C71.5056 5.5558 72.5301 6.58058 73.7939 6.58058Z" fill="#011627"/>
<path d="M81.231 6.58058C82.4948 6.58058 83.5193 5.5558 83.5193 4.29168C83.5193 3.02755 82.4948 2.00278 81.231 2.00278C79.9672 2.00278 78.9426 3.02755 78.9426 4.29168C78.9426 5.5558 79.9672 6.58058 81.231 6.58058Z" fill="#011627"/>
<path d="M59.1165 139.877L58.9195 140.046V199.706H336.842V94.911L333.53 95.1623L59.1165 139.877Z" fill="#3F3D56"/>
<path d="M156.587 59.1607H78.9767V62.2909H156.587V59.1607Z" fill="#3F3D56"/>
<path d="M156.587 66.0471H78.9767V69.1773H156.587V66.0471Z" fill="#3F3D56"/>
<path d="M105.264 72.9335H78.9767V76.0637H105.264V72.9335Z" fill="#3F3D56"/>
<path d="M314.857 146.062H237.247V149.192H314.857V146.062Z" fill="white"/>
<path d="M314.857 152.949H237.247V156.079H314.857V152.949Z" fill="white"/>
<path d="M263.535 159.835H237.247V162.965H263.535V159.835Z" fill="white"/>
<path d="M189.028 196.82C190.714 196.82 192.081 195.453 192.081 193.767C192.081 192.08 190.714 190.713 189.028 190.713C187.342 190.713 185.975 192.08 185.975 193.767C185.975 195.453 187.342 196.82 189.028 196.82Z" fill="#F2F2F2"/>
<path d="M197.881 197.126C199.567 197.126 200.934 195.759 200.934 194.072C200.934 192.386 199.567 191.018 197.881 191.018C196.195 191.018 194.828 192.386 194.828 194.072C194.828 195.759 196.195 197.126 197.881 197.126Z" fill="#F2F2F2"/>
<path d="M206.734 197.431C208.42 197.431 209.787 196.064 209.787 194.377C209.787 192.691 208.42 191.324 206.734 191.324C205.048 191.324 203.681 192.691 203.681 194.377C203.681 196.064 205.048 197.431 206.734 197.431Z" fill="#F2F2F2"/>
<path d="M197.909 196.515C199.258 196.515 200.351 195.421 200.351 194.072C200.351 192.723 199.258 191.629 197.909 191.629C196.56 191.629 195.467 192.723 195.467 194.072C195.467 195.421 196.56 196.515 197.909 196.515Z" fill="#3F3D56"/>
<path d="M130.857 94.9901H104.569V100.989H130.857V94.9901Z" fill="#3F3D56"/>
<path d="M287.107 176.166H260.82V182.165H287.107V176.166Z" fill="white"/>
<path opacity="0.3" d="M117.861 116.21C127.904 116.21 136.045 108.067 136.045 98.0215C136.045 87.9762 127.904 79.8328 117.861 79.8328C107.818 79.8328 99.6769 87.9762 99.6769 98.0215C99.6769 108.067 107.818 116.21 117.861 116.21Z" fill="#011627"/>
<path opacity="0.3" d="M117.861 110.147C124.556 110.147 129.984 104.718 129.984 98.0215C129.984 91.3247 124.556 85.8958 117.861 85.8958C111.166 85.8958 105.738 91.3247 105.738 98.0215C105.738 104.718 111.166 110.147 117.861 110.147Z" fill="#011627"/>
<path d="M117.861 106.442C122.511 106.442 126.28 102.672 126.28 98.0215C126.28 93.3709 122.511 89.6008 117.861 89.6008C113.212 89.6008 109.443 93.3709 109.443 98.0215C109.443 102.672 113.212 106.442 117.861 106.442Z" fill="#011627"/>
<path opacity="0.3" d="M270.87 71.1331C280.913 71.1331 289.055 62.9897 289.055 52.9444C289.055 42.899 280.913 34.7557 270.87 34.7557C260.827 34.7557 252.686 42.899 252.686 52.9444C252.686 62.9897 260.827 71.1331 270.87 71.1331Z" fill="#011627"/>
<path opacity="0.3" d="M270.87 65.0702C277.566 65.0702 282.993 59.6413 282.993 52.9444C282.993 46.2475 277.566 40.8186 270.87 40.8186C264.175 40.8186 258.747 46.2475 258.747 52.9444C258.747 59.6413 264.175 65.0702 270.87 65.0702Z" fill="#011627"/>
<path d="M270.87 61.3651C275.52 61.3651 279.289 57.595 279.289 52.9444C279.289 48.2938 275.52 44.5237 270.87 44.5237C266.221 44.5237 262.452 48.2938 262.452 52.9444C262.452 57.595 266.221 61.3651 270.87 61.3651Z" fill="#011627"/>
<path opacity="0.3" d="M274.111 197.386C284.154 197.386 292.296 189.242 292.296 179.197C292.296 169.152 284.154 161.008 274.111 161.008C264.069 161.008 255.927 169.152 255.927 179.197C255.927 189.242 264.069 197.386 274.111 197.386Z" fill="#011627"/>
<path opacity="0.3" d="M274.112 191.323C280.807 191.323 286.234 185.894 286.234 179.197C286.234 172.5 280.807 167.071 274.112 167.071C267.416 167.071 261.989 172.5 261.989 179.197C261.989 185.894 267.416 191.323 274.112 191.323Z" fill="#011627"/>
<path d="M274.112 187.618C278.761 187.618 282.53 183.848 282.53 179.197C282.53 174.546 278.761 170.776 274.112 170.776C269.462 170.776 265.693 174.546 265.693 179.197C265.693 183.848 269.462 187.618 274.112 187.618Z" fill="#011627"/>
<path d="M30.281 36.8359L37.7654 37.1262L38.1385 27.5011L30.6541 27.2108L30.281 36.8359Z" fill="#011627"/>
<path d="M64.4162 60.9201C64.4162 60.9201 74.7809 55.9668 74.615 60.2446C74.4492 64.5224 64.1674 67.3368 64.1674 67.3368L64.4162 60.9201Z" fill="#FFB9B9"/>
<path d="M58.7297 97.1158C58.7297 97.1158 63.6196 109.087 65.4263 117.726C67.233 126.364 69.9845 138.253 66.4452 146.684C62.9059 155.115 52.8434 179.895 52.7397 182.569C52.6361 185.242 53.6016 187.958 51.4632 187.875C49.3248 187.792 37.688 184.127 37.2156 182.502C36.7432 180.877 41.1859 176.765 41.1859 176.765L52.1561 142.381L40.7103 119.98L32.4545 153.399L30.8375 195.108C30.8375 195.108 22.9014 192.658 21.7493 194.755C21.7493 194.755 18.1937 189.797 17.742 187.638C17.2903 185.478 19.4212 144.325 19.4212 144.325C19.4212 144.325 12.1366 97.4507 18.0172 97.6788C23.8978 97.9069 46.9314 83.8054 58.7297 97.1158Z" fill="#2F2E41"/>
<path d="M51.5462 185.736C51.5462 185.736 56.9707 197.728 57.4846 198.283C57.9984 198.839 61.5333 204.331 58.8603 204.228C56.1873 204.124 49.8758 201.201 45.2302 196.737C40.5847 192.272 34.4597 184.537 35.015 184.023C35.5704 183.509 39.3748 182.05 39.3748 182.05L51.5462 185.736Z" fill="#2F2E41"/>
<path d="M29.872 192.392C29.872 192.392 30.1993 197.76 31.1855 199.941C32.1718 202.121 32.0474 205.33 29.3744 205.226C26.7014 205.122 19.7931 203.783 19.7931 203.783C19.7931 203.783 19.3829 200.554 19.9382 200.04C20.4935 199.526 22.86 193.727 21.853 192.081C20.846 190.436 29.872 192.392 29.872 192.392Z" fill="#2F2E41"/>
<path d="M25.9175 18.1908C25.9175 18.1908 20.219 27.0738 17.9977 29.1298C15.7764 31.1857 22.0257 35.7124 22.0257 35.7124L33.2109 37.2173C33.2109 37.2173 33.0702 27.0367 33.6462 25.988C34.2223 24.9393 25.9175 18.1908 25.9175 18.1908Z" fill="#FFB9B9"/>
<path d="M35.6395 29.8141C35.6395 29.8141 33.3353 34.0089 31.1969 33.926C29.0585 33.8431 17.9977 29.1298 17.5253 27.5049C17.0529 25.8799 13.8616 39.1445 13.8616 39.1445L40.9265 86.7856L47.5282 82.2219L44.3294 54.2501L41.7023 39.1533L35.6395 29.8141Z" fill="#011627"/>
<path d="M16.5271 72.4509C17.6067 74.7099 18.281 77.0656 18.1875 79.4773C18.1833 79.5842 18.1792 79.6912 18.1697 79.7979C17.9136 84.747 16.0908 90.4708 15.4369 94.6333C14.9624 97.6192 15.0974 99.7987 16.8444 100.311C21.0797 101.546 16.2268 102.429 32.6128 107.885C48.9989 113.34 51.8584 108.631 51.8999 107.562C51.9414 106.492 49.5793 98.3675 50.1347 97.8535C50.69 97.3395 57.9049 104.581 60.0847 103.595C62.2646 102.608 60.3335 97.178 60.3335 97.178C60.3335 97.178 55.4229 85.7414 55.5265 83.0677C55.6302 80.3941 48.088 67.7843 48.088 67.7843L42.9581 34.3822C42.9581 34.3822 40.9855 30.0214 38.3333 29.383C35.681 28.7446 33.4804 30.2658 33.4804 30.2658L37.9187 40.0776L42.6013 57.3963L41.8179 63.7923C41.8179 63.7923 36.3727 52.3349 32.7963 47.9119C29.22 43.4889 21.5949 33.018 21.5949 33.018C21.5949 33.018 19.8147 27.0099 21.1585 25.2144C22.5026 23.4137 15.5528 23.1441 12.5896 30.5266C11.0191 34.4393 8.46923 40.2742 6.8719 45.7068C5.44854 50.5196 4.77618 55.0187 6.18633 57.5904C8.34158 61.5192 13.7631 66.6831 16.5271 72.4509Z" fill="#575A89"/>
<path opacity="0.1" d="M6.18626 57.5904C8.34154 61.5192 13.7631 66.6831 16.527 72.4509C17.2489 69.8495 18.1296 67.1578 18.1296 67.1578C18.1296 67.1578 21.5075 49.0807 11.5159 44.4088C9.8604 44.2487 8.20462 44.7115 6.87185 45.7068C5.44847 50.5196 4.77612 55.0187 6.18626 57.5904Z" fill="black"/>
<path d="M45.8503 56.4512L54.321 58.9219L66.0822 59.3781L67.2921 69.6002L47.9636 70.9926C47.9636 70.9926 43.1358 57.417 45.8503 56.4512Z" fill="#575A89"/>
<path d="M32.0377 90.821C32.0377 90.821 43.3698 92.7015 40.7834 96.1125C38.1969 99.5234 28.1581 95.9374 28.1581 95.9374L32.0377 90.821Z" fill="#FFB9B9"/>
<path opacity="0.1" d="M18.1696 79.7979C17.9135 84.747 16.0908 90.4707 15.4368 94.6333C19.0468 98.0507 22.4797 101.065 23.7734 101.115C26.4464 101.219 30.7439 100.85 32.327 101.447C33.9101 102.044 34.8385 91.9048 34.8385 91.9048C34.8385 91.9048 33.8937 88.655 29.6791 86.8849C26.8344 85.6874 21.3814 82.4394 18.1696 79.7979Z" fill="black"/>
<path d="M11.6403 41.2005C11.6403 41.2005 2.59361 39.7785 3.08235 54.7924C3.57108 69.8063 2.12873 79.3899 5.76727 82.2087C9.40582 85.0275 21.2248 97.8032 23.8978 97.9069C26.5708 98.0106 30.8683 97.6417 32.4514 98.2387C34.0345 98.8356 34.9629 88.6965 34.9629 88.6965C34.9629 88.6965 34.0181 85.4466 29.8035 83.6765C25.5889 81.9065 15.6596 75.6305 15.7425 73.4916C15.8254 71.3526 18.254 63.9494 18.254 63.9494C18.254 63.9494 21.6319 45.8723 11.6403 41.2005Z" fill="#575A89"/>
<path d="M33.895 31.3441C40.3954 31.3441 45.665 26.0732 45.665 19.5713C45.665 13.0693 40.3954 7.79837 33.895 7.79837C27.3946 7.79837 22.1249 13.0693 22.1249 19.5713C22.1249 26.0732 27.3946 31.3441 33.895 31.3441Z" fill="#FFB9B9"/>
<path d="M41.82 2.6973C42.1039 2.94196 42.4439 3.1126 42.8097 3.19405C42.9933 3.22679 43.1824 3.18554 43.3358 3.07931C43.4891 2.97307 43.5942 2.81047 43.6281 2.62701C43.8974 3.18561 44.2012 3.78097 44.751 4.06759C45.3008 4.35422 46.1509 4.11388 46.2302 3.49881C46.3105 3.96581 46.517 4.40193 46.8275 4.75986C47.1686 5.08519 47.7872 5.1673 48.085 4.80191C47.8442 6.11805 47.9928 7.47156 47.9172 8.80741C47.8416 10.1433 47.4855 11.5595 46.4765 12.4379C45.0049 13.719 42.7921 13.4028 40.8564 13.1601C40.5637 13.0986 40.26 13.1152 39.9757 13.2083C39.2509 13.5171 39.2838 14.5263 39.274 15.3143C39.2149 16.6968 38.6678 18.0136 37.73 19.031C36.7922 20.0483 35.5242 20.7002 34.1514 20.8711C33.383 20.9897 32.5991 20.7983 31.9718 20.339C31.4222 19.873 31.1415 19.1136 30.5117 18.7636C29.4873 18.1942 28.2449 19.0246 27.4959 19.9262C26.7469 20.8278 26.0088 21.9368 24.8485 22.1018C23.314 22.3201 22.1452 20.7559 21.5718 19.3155C20.7807 17.2968 20.4017 15.1401 20.4571 12.9725C20.5125 10.8049 21.0013 8.67034 21.8945 6.69468C25.0987 -0.291489 36.044 -1.39649 41.82 2.6973Z" fill="#2F2E41"/>
<path d="M324.362 189.893C328.507 196.964 336.867 199.764 336.867 199.764C336.867 199.764 338.507 191.099 334.361 184.028C330.216 176.957 321.856 174.158 321.856 174.158C321.856 174.158 320.216 182.822 324.362 189.893Z" fill="#F2F2F2"/>
<path d="M326.948 187.425C334.117 191.397 337.12 199.688 337.12 199.688C337.12 199.688 328.5 201.54 321.332 197.569C314.163 193.597 311.16 185.306 311.16 185.306C311.16 185.306 319.779 183.454 326.948 187.425Z" fill="#011627"/>
</g>
<defs>
<clipPath id="clip0">
<rect width="370" height="213" fill="white"/>
</clipPath>
</defs>
</svg>
